; NON-PLATED HOLES START AT T1
; THROUGH (PLATED) HOLES START AT T100
M48
INCH
T100C0.032000
T101C0.040000
T102C0.038000
T103C0.035000
%
T100
X028777Y029353
X028777Y031353
X028777Y026353
X028777Y027353
X031777Y027353
X031777Y029353
X031777Y025353
X031777Y026353
X031777Y032353
X031777Y028353
X028777Y032353
X031777Y031353
X028777Y030353
X028777Y025353
X031777Y030353
X028777Y028353
T101
X030777Y036353
X026777Y020353
X032777Y020353
X029399Y036353
X030777Y020353
X028777Y020353
T102
X020777Y030353
X020777Y031913
X020777Y039473
X005777Y022473
X039777Y021473
X005777Y034353
X005777Y046793
X020777Y021473
X020777Y025913
X039777Y019913
X039777Y039473
X049777Y021353
X005777Y032793
X005777Y049913
X049777Y022913
X005777Y020913
X020777Y018353
X049777Y008353
X005777Y035913
X039777Y024353
X039777Y037913
X005777Y009473
X005777Y019353
X020777Y027473
X049777Y047913
X049777Y019793
X039777Y018353
X020777Y033473
X049777Y009913
X005777Y048353
X020777Y036353
X039777Y033473
X039777Y030353
X005777Y007913
X020777Y024353
X049777Y035913
X039777Y036353
X039777Y025913
X020777Y037913
X005777Y006353
X020777Y019913
X049777Y006793
X049777Y049473
X049777Y046353
X049777Y032793
X049777Y034353
X039777Y027473
X039777Y031913
T103
X053777Y022353
X053777Y038353
X009777Y011353
X053777Y035353
X009777Y021913
X053777Y047913
X009777Y007353
X009777Y024913
X009777Y049353
X009777Y048353
X053777Y051913
X009777Y016913
X053777Y025353
X053777Y008353
X053777Y043913
X009777Y034353
X009777Y035353
X053777Y004353
X053777Y048913
X009777Y052353
X009777Y008353
X009777Y044353
X009777Y038353
X009777Y030353
X053777Y021353
X009777Y003353
X009777Y020913
X053777Y012353
X053777Y009353
X053777Y017353
X053777Y030353
X053777Y034353
T00
M30
