G04 MADE WITH FRITZING*
G04 WWW.FRITZING.ORG*
G04 DOUBLE SIDED*
G04 HOLES PLATED*
G04 CONTOUR ON CENTER OF CONTOUR VECTOR*
%ASAXBY*%
%FSLAX23Y23*%
%MOIN*%
%OFA0B0*%
%SFA1.0B1.0*%
%ADD10C,0.075000*%
%ADD11C,0.078000*%
%ADD12C,0.052000*%
%ADD13C,0.080000*%
%ADD14R,0.080000X0.080000*%
%ADD15C,0.024000*%
%ADD16R,0.001000X0.001000*%
%LNCOPPER0*%
G90*
G70*
G54D10*
X5378Y435D03*
X5378Y835D03*
X5378Y3035D03*
X5378Y3435D03*
X5378Y4391D03*
X5378Y4791D03*
X5378Y1735D03*
X5378Y2135D03*
X978Y3035D03*
X978Y3435D03*
X978Y4435D03*
X978Y4835D03*
X978Y1691D03*
X978Y2091D03*
X978Y335D03*
X978Y735D03*
X5378Y3535D03*
X5378Y3835D03*
X5378Y2235D03*
X5378Y2535D03*
X5378Y935D03*
X5378Y1235D03*
X5378Y4891D03*
X5378Y5191D03*
X978Y2191D03*
X978Y2491D03*
X978Y3535D03*
X978Y3835D03*
X978Y4935D03*
X978Y5235D03*
X978Y835D03*
X978Y1135D03*
G54D11*
X4978Y3591D03*
X4978Y3435D03*
X4978Y3279D03*
X4978Y2291D03*
X4978Y2135D03*
X4978Y1979D03*
X4978Y991D03*
X4978Y835D03*
X4978Y679D03*
X4978Y4947D03*
X4978Y4791D03*
X4978Y4635D03*
X578Y3591D03*
X578Y3435D03*
X578Y3279D03*
X578Y2247D03*
X578Y2091D03*
X578Y1935D03*
X578Y947D03*
X578Y791D03*
X578Y635D03*
X578Y4991D03*
X578Y4835D03*
X578Y4679D03*
G54D12*
X2878Y3235D03*
X2878Y3135D03*
X2878Y3035D03*
X2878Y2935D03*
X2878Y2835D03*
X2878Y2735D03*
X2878Y2635D03*
X2878Y2535D03*
X3178Y2535D03*
X3178Y2635D03*
X3178Y2735D03*
X3178Y2835D03*
X3178Y2935D03*
X3178Y3035D03*
X3178Y3135D03*
X3178Y3235D03*
G54D11*
X2078Y3947D03*
X2078Y3791D03*
X2078Y3635D03*
X2078Y3347D03*
X2078Y3191D03*
X2078Y3035D03*
X2078Y2747D03*
X2078Y2591D03*
X2078Y2435D03*
X2078Y2147D03*
X2078Y1991D03*
X2078Y1835D03*
X3978Y2147D03*
X3978Y1991D03*
X3978Y1835D03*
X3978Y2747D03*
X3978Y2591D03*
X3978Y2435D03*
X3978Y3347D03*
X3978Y3191D03*
X3978Y3035D03*
X3978Y3947D03*
X3978Y3791D03*
X3978Y3635D03*
G54D13*
X3078Y3635D03*
X2940Y3635D03*
X3078Y2035D03*
X2878Y2035D03*
X2678Y2035D03*
X3278Y2035D03*
G54D14*
X3078Y3635D03*
X3278Y2035D03*
G54D15*
X2376Y3537D02*
X2376Y3035D01*
D02*
X2376Y3035D02*
X2108Y3035D01*
D02*
X2106Y3626D02*
X2376Y3537D01*
D02*
X2376Y2537D02*
X2377Y1937D01*
D02*
X2377Y1937D02*
X2106Y1845D01*
D02*
X2106Y2445D02*
X2376Y2537D01*
D02*
X2376Y3035D02*
X2376Y2537D01*
D02*
X2376Y2537D02*
X2106Y2445D01*
D02*
X2108Y3035D02*
X2376Y3035D01*
D02*
X3576Y3035D02*
X3577Y2435D01*
D02*
X3577Y2435D02*
X3948Y2435D01*
D02*
X3948Y3035D02*
X3576Y3035D01*
D02*
X3577Y2435D02*
X3577Y1833D01*
D02*
X3577Y1833D02*
X3948Y1835D01*
D02*
X3948Y2435D02*
X3577Y2435D01*
D02*
X3678Y3435D02*
X3577Y3033D01*
D02*
X3577Y3033D02*
X3948Y3035D01*
D02*
X3953Y3619D02*
X3678Y3435D01*
D02*
X3678Y3435D02*
X3953Y3619D01*
D02*
X2976Y3435D02*
X3678Y3435D01*
D02*
X2945Y3605D02*
X2976Y3435D01*
D02*
X2976Y2537D02*
X3153Y2624D01*
D02*
X2892Y2063D02*
X2979Y2238D01*
D02*
X2979Y2238D02*
X2976Y2537D01*
D02*
X3278Y2937D02*
X3205Y2936D01*
D02*
X3278Y2066D02*
X3278Y2937D01*
D02*
X3078Y2435D02*
X3159Y2516D01*
D02*
X3078Y2066D02*
X3078Y2435D01*
D02*
X2678Y2934D02*
X2854Y3023D01*
D02*
X2678Y2066D02*
X2678Y2934D01*
D02*
X2576Y3635D02*
X2376Y3537D01*
D02*
X2376Y3537D02*
X2106Y3626D01*
D02*
X2909Y3635D02*
X2576Y3635D01*
D02*
X2878Y2608D02*
X2878Y2562D01*
D02*
X2878Y2708D02*
X2878Y2662D01*
D02*
X2578Y3636D02*
X2977Y3636D01*
D02*
X2378Y3535D02*
X2578Y3636D01*
D02*
X2378Y3034D02*
X2378Y3535D01*
D02*
X2378Y2537D02*
X2378Y3034D01*
D02*
X2106Y2445D02*
X2378Y2537D01*
D02*
X978Y3464D02*
X978Y3507D01*
D02*
X5378Y3464D02*
X5378Y3507D01*
D02*
X5378Y2164D02*
X5378Y2207D01*
D02*
X5378Y4820D02*
X5378Y4863D01*
D02*
X978Y4864D02*
X978Y4907D01*
D02*
X978Y764D02*
X978Y807D01*
D02*
X978Y2120D02*
X978Y2163D01*
D02*
X5378Y864D02*
X5378Y907D01*
G54D16*
X2846Y3262D02*
X2908Y3262D01*
X3146Y3262D02*
X3208Y3262D01*
X2843Y3261D02*
X2911Y3261D01*
X3143Y3261D02*
X3211Y3261D01*
X2840Y3260D02*
X2914Y3260D01*
X3140Y3260D02*
X3214Y3260D01*
X2839Y3259D02*
X2915Y3259D01*
X3138Y3259D02*
X3215Y3259D01*
X2837Y3258D02*
X2917Y3258D01*
X3137Y3258D02*
X3217Y3258D01*
X2836Y3257D02*
X2918Y3257D01*
X3136Y3257D02*
X3218Y3257D01*
X2834Y3256D02*
X2920Y3256D01*
X3134Y3256D02*
X3220Y3256D01*
X2833Y3255D02*
X2921Y3255D01*
X3133Y3255D02*
X3221Y3255D01*
X2832Y3254D02*
X2922Y3254D01*
X3132Y3254D02*
X3222Y3254D01*
X2831Y3253D02*
X2923Y3253D01*
X3131Y3253D02*
X3222Y3253D01*
X2831Y3252D02*
X2872Y3252D01*
X2882Y3252D02*
X2923Y3252D01*
X3131Y3252D02*
X3172Y3252D01*
X3182Y3252D02*
X3223Y3252D01*
X2830Y3251D02*
X2870Y3251D01*
X2884Y3251D02*
X2924Y3251D01*
X3130Y3251D02*
X3170Y3251D01*
X3184Y3251D02*
X3224Y3251D01*
X2829Y3250D02*
X2868Y3250D01*
X2886Y3250D02*
X2925Y3250D01*
X3129Y3250D02*
X3168Y3250D01*
X3186Y3250D02*
X3225Y3250D01*
X2829Y3249D02*
X2867Y3249D01*
X2887Y3249D02*
X2925Y3249D01*
X3129Y3249D02*
X3166Y3249D01*
X3187Y3249D02*
X3225Y3249D01*
X2828Y3248D02*
X2865Y3248D01*
X2889Y3248D02*
X2926Y3248D01*
X3128Y3248D02*
X3165Y3248D01*
X3189Y3248D02*
X3226Y3248D01*
X2828Y3247D02*
X2864Y3247D01*
X2890Y3247D02*
X2926Y3247D01*
X3128Y3247D02*
X3164Y3247D01*
X3190Y3247D02*
X3226Y3247D01*
X2827Y3246D02*
X2864Y3246D01*
X2890Y3246D02*
X2927Y3246D01*
X3127Y3246D02*
X3164Y3246D01*
X3190Y3246D02*
X3227Y3246D01*
X2827Y3245D02*
X2863Y3245D01*
X2891Y3245D02*
X2927Y3245D01*
X3127Y3245D02*
X3163Y3245D01*
X3191Y3245D02*
X3227Y3245D01*
X2827Y3244D02*
X2862Y3244D01*
X2892Y3244D02*
X2927Y3244D01*
X3127Y3244D02*
X3162Y3244D01*
X3192Y3244D02*
X3227Y3244D01*
X2826Y3243D02*
X2862Y3243D01*
X2892Y3243D02*
X2928Y3243D01*
X3126Y3243D02*
X3162Y3243D01*
X3192Y3243D02*
X3228Y3243D01*
X2826Y3242D02*
X2862Y3242D01*
X2892Y3242D02*
X2928Y3242D01*
X3126Y3242D02*
X3161Y3242D01*
X3192Y3242D02*
X3228Y3242D01*
X2826Y3241D02*
X2861Y3241D01*
X2893Y3241D02*
X2928Y3241D01*
X3126Y3241D02*
X3161Y3241D01*
X3193Y3241D02*
X3228Y3241D01*
X2826Y3240D02*
X2861Y3240D01*
X2893Y3240D02*
X2928Y3240D01*
X3126Y3240D02*
X3161Y3240D01*
X3193Y3240D02*
X3228Y3240D01*
X2826Y3239D02*
X2861Y3239D01*
X2893Y3239D02*
X2928Y3239D01*
X3126Y3239D02*
X3161Y3239D01*
X3193Y3239D02*
X3228Y3239D01*
X2826Y3238D02*
X2861Y3238D01*
X2893Y3238D02*
X2928Y3238D01*
X3126Y3238D02*
X3161Y3238D01*
X3193Y3238D02*
X3228Y3238D01*
X2826Y3237D02*
X2861Y3237D01*
X2893Y3237D02*
X2928Y3237D01*
X3125Y3237D02*
X3161Y3237D01*
X3193Y3237D02*
X3228Y3237D01*
X2826Y3236D02*
X2861Y3236D01*
X2893Y3236D02*
X2928Y3236D01*
X3126Y3236D02*
X3161Y3236D01*
X3193Y3236D02*
X3228Y3236D01*
X2826Y3235D02*
X2861Y3235D01*
X2893Y3235D02*
X2928Y3235D01*
X3126Y3235D02*
X3161Y3235D01*
X3193Y3235D02*
X3228Y3235D01*
X2826Y3234D02*
X2861Y3234D01*
X2893Y3234D02*
X2928Y3234D01*
X3126Y3234D02*
X3161Y3234D01*
X3193Y3234D02*
X3228Y3234D01*
X2826Y3233D02*
X2861Y3233D01*
X2893Y3233D02*
X2928Y3233D01*
X3126Y3233D02*
X3161Y3233D01*
X3193Y3233D02*
X3228Y3233D01*
X2826Y3232D02*
X2861Y3232D01*
X2893Y3232D02*
X2928Y3232D01*
X3126Y3232D02*
X3161Y3232D01*
X3193Y3232D02*
X3228Y3232D01*
X2826Y3231D02*
X2862Y3231D01*
X2892Y3231D02*
X2928Y3231D01*
X3126Y3231D02*
X3162Y3231D01*
X3192Y3231D02*
X3228Y3231D01*
X2826Y3230D02*
X2862Y3230D01*
X2892Y3230D02*
X2928Y3230D01*
X3126Y3230D02*
X3162Y3230D01*
X3192Y3230D02*
X3228Y3230D01*
X2827Y3229D02*
X2863Y3229D01*
X2891Y3229D02*
X2927Y3229D01*
X3127Y3229D02*
X3162Y3229D01*
X3191Y3229D02*
X3227Y3229D01*
X2827Y3228D02*
X2863Y3228D01*
X2891Y3228D02*
X2927Y3228D01*
X3127Y3228D02*
X3163Y3228D01*
X3191Y3228D02*
X3227Y3228D01*
X2827Y3227D02*
X2864Y3227D01*
X2890Y3227D02*
X2927Y3227D01*
X3127Y3227D02*
X3164Y3227D01*
X3190Y3227D02*
X3227Y3227D01*
X2828Y3226D02*
X2865Y3226D01*
X2889Y3226D02*
X2926Y3226D01*
X3128Y3226D02*
X3165Y3226D01*
X3189Y3226D02*
X3226Y3226D01*
X2828Y3225D02*
X2866Y3225D01*
X2888Y3225D02*
X2926Y3225D01*
X3128Y3225D02*
X3166Y3225D01*
X3188Y3225D02*
X3226Y3225D01*
X2829Y3224D02*
X2867Y3224D01*
X2887Y3224D02*
X2925Y3224D01*
X3129Y3224D02*
X3167Y3224D01*
X3187Y3224D02*
X3225Y3224D01*
X2829Y3223D02*
X2868Y3223D01*
X2886Y3223D02*
X2925Y3223D01*
X3129Y3223D02*
X3168Y3223D01*
X3186Y3223D02*
X3225Y3223D01*
X2830Y3222D02*
X2870Y3222D01*
X2884Y3222D02*
X2924Y3222D01*
X3130Y3222D02*
X3170Y3222D01*
X3184Y3222D02*
X3224Y3222D01*
X2831Y3221D02*
X2873Y3221D01*
X2881Y3221D02*
X2923Y3221D01*
X3131Y3221D02*
X3173Y3221D01*
X3181Y3221D02*
X3223Y3221D01*
X2832Y3220D02*
X2922Y3220D01*
X3132Y3220D02*
X3222Y3220D01*
X2832Y3219D02*
X2922Y3219D01*
X3132Y3219D02*
X3222Y3219D01*
X2833Y3218D02*
X2921Y3218D01*
X3133Y3218D02*
X3221Y3218D01*
X2835Y3217D02*
X2919Y3217D01*
X3135Y3217D02*
X3219Y3217D01*
X2836Y3216D02*
X2918Y3216D01*
X3136Y3216D02*
X3218Y3216D01*
X2837Y3215D02*
X2917Y3215D01*
X3137Y3215D02*
X3217Y3215D01*
X2839Y3214D02*
X2915Y3214D01*
X3139Y3214D02*
X3215Y3214D01*
X2841Y3213D02*
X2913Y3213D01*
X3141Y3213D02*
X3213Y3213D01*
X2843Y3212D02*
X2911Y3212D01*
X3143Y3212D02*
X3211Y3212D01*
X2847Y3211D02*
X2907Y3211D01*
X3147Y3211D02*
X3207Y3211D01*
X2846Y3162D02*
X2908Y3162D01*
X3146Y3162D02*
X3208Y3162D01*
X2843Y3161D02*
X2911Y3161D01*
X3143Y3161D02*
X3211Y3161D01*
X2840Y3160D02*
X2914Y3160D01*
X3140Y3160D02*
X3214Y3160D01*
X2838Y3159D02*
X2916Y3159D01*
X3138Y3159D02*
X3215Y3159D01*
X2837Y3158D02*
X2917Y3158D01*
X3137Y3158D02*
X3217Y3158D01*
X2836Y3157D02*
X2918Y3157D01*
X3136Y3157D02*
X3218Y3157D01*
X2834Y3156D02*
X2920Y3156D01*
X3134Y3156D02*
X3220Y3156D01*
X2833Y3155D02*
X2921Y3155D01*
X3133Y3155D02*
X3221Y3155D01*
X2832Y3154D02*
X2922Y3154D01*
X3132Y3154D02*
X3222Y3154D01*
X2831Y3153D02*
X2923Y3153D01*
X3131Y3153D02*
X3223Y3153D01*
X2831Y3152D02*
X2872Y3152D01*
X2882Y3152D02*
X2923Y3152D01*
X3131Y3152D02*
X3172Y3152D01*
X3182Y3152D02*
X3223Y3152D01*
X2830Y3151D02*
X2870Y3151D01*
X2884Y3151D02*
X2924Y3151D01*
X3130Y3151D02*
X3170Y3151D01*
X3184Y3151D02*
X3224Y3151D01*
X2829Y3150D02*
X2868Y3150D01*
X2886Y3150D02*
X2925Y3150D01*
X3129Y3150D02*
X3168Y3150D01*
X3186Y3150D02*
X3225Y3150D01*
X2829Y3149D02*
X2866Y3149D01*
X2888Y3149D02*
X2925Y3149D01*
X3129Y3149D02*
X3166Y3149D01*
X3187Y3149D02*
X3225Y3149D01*
X2828Y3148D02*
X2865Y3148D01*
X2889Y3148D02*
X2926Y3148D01*
X3128Y3148D02*
X3165Y3148D01*
X3189Y3148D02*
X3226Y3148D01*
X2828Y3147D02*
X2864Y3147D01*
X2890Y3147D02*
X2926Y3147D01*
X3128Y3147D02*
X3164Y3147D01*
X3190Y3147D02*
X3226Y3147D01*
X2827Y3146D02*
X2864Y3146D01*
X2890Y3146D02*
X2927Y3146D01*
X3127Y3146D02*
X3164Y3146D01*
X3190Y3146D02*
X3227Y3146D01*
X2827Y3145D02*
X2863Y3145D01*
X2891Y3145D02*
X2927Y3145D01*
X3127Y3145D02*
X3163Y3145D01*
X3191Y3145D02*
X3227Y3145D01*
X2827Y3144D02*
X2862Y3144D01*
X2892Y3144D02*
X2927Y3144D01*
X3127Y3144D02*
X3162Y3144D01*
X3192Y3144D02*
X3227Y3144D01*
X2826Y3143D02*
X2862Y3143D01*
X2892Y3143D02*
X2928Y3143D01*
X3126Y3143D02*
X3162Y3143D01*
X3192Y3143D02*
X3228Y3143D01*
X2826Y3142D02*
X2862Y3142D01*
X2893Y3142D02*
X2928Y3142D01*
X3126Y3142D02*
X3161Y3142D01*
X3192Y3142D02*
X3228Y3142D01*
X2826Y3141D02*
X2861Y3141D01*
X2893Y3141D02*
X2928Y3141D01*
X3126Y3141D02*
X3161Y3141D01*
X3193Y3141D02*
X3228Y3141D01*
X2826Y3140D02*
X2861Y3140D01*
X2893Y3140D02*
X2928Y3140D01*
X3126Y3140D02*
X3161Y3140D01*
X3193Y3140D02*
X3228Y3140D01*
X2826Y3139D02*
X2861Y3139D01*
X2893Y3139D02*
X2928Y3139D01*
X3126Y3139D02*
X3161Y3139D01*
X3193Y3139D02*
X3228Y3139D01*
X2826Y3138D02*
X2861Y3138D01*
X2893Y3138D02*
X2928Y3138D01*
X3126Y3138D02*
X3161Y3138D01*
X3193Y3138D02*
X3228Y3138D01*
X2826Y3137D02*
X2861Y3137D01*
X2893Y3137D02*
X2928Y3137D01*
X3125Y3137D02*
X3161Y3137D01*
X3193Y3137D02*
X3228Y3137D01*
X2826Y3136D02*
X2861Y3136D01*
X2893Y3136D02*
X2928Y3136D01*
X3126Y3136D02*
X3161Y3136D01*
X3193Y3136D02*
X3228Y3136D01*
X2826Y3135D02*
X2861Y3135D01*
X2893Y3135D02*
X2928Y3135D01*
X3126Y3135D02*
X3161Y3135D01*
X3193Y3135D02*
X3228Y3135D01*
X2826Y3134D02*
X2861Y3134D01*
X2893Y3134D02*
X2928Y3134D01*
X3126Y3134D02*
X3161Y3134D01*
X3193Y3134D02*
X3228Y3134D01*
X2826Y3133D02*
X2861Y3133D01*
X2893Y3133D02*
X2928Y3133D01*
X3126Y3133D02*
X3161Y3133D01*
X3193Y3133D02*
X3228Y3133D01*
X2826Y3132D02*
X2861Y3132D01*
X2893Y3132D02*
X2928Y3132D01*
X3126Y3132D02*
X3161Y3132D01*
X3193Y3132D02*
X3228Y3132D01*
X2826Y3131D02*
X2862Y3131D01*
X2892Y3131D02*
X2928Y3131D01*
X3126Y3131D02*
X3162Y3131D01*
X3192Y3131D02*
X3228Y3131D01*
X2826Y3130D02*
X2862Y3130D01*
X2892Y3130D02*
X2928Y3130D01*
X3126Y3130D02*
X3162Y3130D01*
X3192Y3130D02*
X3228Y3130D01*
X2827Y3129D02*
X2863Y3129D01*
X2891Y3129D02*
X2927Y3129D01*
X3127Y3129D02*
X3162Y3129D01*
X3191Y3129D02*
X3227Y3129D01*
X2827Y3128D02*
X2863Y3128D01*
X2891Y3128D02*
X2927Y3128D01*
X3127Y3128D02*
X3163Y3128D01*
X3191Y3128D02*
X3227Y3128D01*
X2827Y3127D02*
X2864Y3127D01*
X2890Y3127D02*
X2927Y3127D01*
X3127Y3127D02*
X3164Y3127D01*
X3190Y3127D02*
X3227Y3127D01*
X2828Y3126D02*
X2865Y3126D01*
X2889Y3126D02*
X2926Y3126D01*
X3128Y3126D02*
X3165Y3126D01*
X3189Y3126D02*
X3226Y3126D01*
X2828Y3125D02*
X2866Y3125D01*
X2888Y3125D02*
X2926Y3125D01*
X3128Y3125D02*
X3166Y3125D01*
X3188Y3125D02*
X3226Y3125D01*
X2829Y3124D02*
X2867Y3124D01*
X2887Y3124D02*
X2925Y3124D01*
X3129Y3124D02*
X3167Y3124D01*
X3187Y3124D02*
X3225Y3124D01*
X2829Y3123D02*
X2868Y3123D01*
X2886Y3123D02*
X2925Y3123D01*
X3129Y3123D02*
X3168Y3123D01*
X3186Y3123D02*
X3225Y3123D01*
X2830Y3122D02*
X2870Y3122D01*
X2884Y3122D02*
X2924Y3122D01*
X3130Y3122D02*
X3170Y3122D01*
X3184Y3122D02*
X3224Y3122D01*
X2831Y3121D02*
X2873Y3121D01*
X2881Y3121D02*
X2923Y3121D01*
X3131Y3121D02*
X3173Y3121D01*
X3181Y3121D02*
X3223Y3121D01*
X2832Y3120D02*
X2922Y3120D01*
X3132Y3120D02*
X3222Y3120D01*
X2832Y3119D02*
X2922Y3119D01*
X3132Y3119D02*
X3222Y3119D01*
X2833Y3118D02*
X2921Y3118D01*
X3133Y3118D02*
X3221Y3118D01*
X2835Y3117D02*
X2919Y3117D01*
X3135Y3117D02*
X3219Y3117D01*
X2836Y3116D02*
X2918Y3116D01*
X3136Y3116D02*
X3218Y3116D01*
X2837Y3115D02*
X2917Y3115D01*
X3137Y3115D02*
X3217Y3115D01*
X2839Y3114D02*
X2915Y3114D01*
X3139Y3114D02*
X3215Y3114D01*
X2841Y3113D02*
X2913Y3113D01*
X3141Y3113D02*
X3213Y3113D01*
X2843Y3112D02*
X2911Y3112D01*
X3143Y3112D02*
X3211Y3112D01*
X2847Y3111D02*
X2907Y3111D01*
X3147Y3111D02*
X3207Y3111D01*
X2846Y3062D02*
X2908Y3062D01*
X3146Y3062D02*
X3208Y3062D01*
X2843Y3061D02*
X2911Y3061D01*
X3142Y3061D02*
X3211Y3061D01*
X2840Y3060D02*
X2914Y3060D01*
X3140Y3060D02*
X3214Y3060D01*
X2838Y3059D02*
X2916Y3059D01*
X3138Y3059D02*
X3216Y3059D01*
X2837Y3058D02*
X2917Y3058D01*
X3137Y3058D02*
X3217Y3058D01*
X2836Y3057D02*
X2918Y3057D01*
X3136Y3057D02*
X3218Y3057D01*
X2834Y3056D02*
X2920Y3056D01*
X3134Y3056D02*
X3220Y3056D01*
X2833Y3055D02*
X2921Y3055D01*
X3133Y3055D02*
X3221Y3055D01*
X2832Y3054D02*
X2922Y3054D01*
X3132Y3054D02*
X3222Y3054D01*
X2831Y3053D02*
X2923Y3053D01*
X3131Y3053D02*
X3223Y3053D01*
X2831Y3052D02*
X2872Y3052D01*
X2882Y3052D02*
X2923Y3052D01*
X3131Y3052D02*
X3172Y3052D01*
X3182Y3052D02*
X3223Y3052D01*
X2830Y3051D02*
X2870Y3051D01*
X2884Y3051D02*
X2924Y3051D01*
X3130Y3051D02*
X3170Y3051D01*
X3184Y3051D02*
X3224Y3051D01*
X2829Y3050D02*
X2868Y3050D01*
X2886Y3050D02*
X2925Y3050D01*
X3129Y3050D02*
X3168Y3050D01*
X3186Y3050D02*
X3225Y3050D01*
X2829Y3049D02*
X2866Y3049D01*
X2888Y3049D02*
X2925Y3049D01*
X3129Y3049D02*
X3166Y3049D01*
X3187Y3049D02*
X3225Y3049D01*
X2828Y3048D02*
X2865Y3048D01*
X2889Y3048D02*
X2926Y3048D01*
X3128Y3048D02*
X3165Y3048D01*
X3189Y3048D02*
X3226Y3048D01*
X2828Y3047D02*
X2864Y3047D01*
X2890Y3047D02*
X2926Y3047D01*
X3128Y3047D02*
X3164Y3047D01*
X3190Y3047D02*
X3226Y3047D01*
X2827Y3046D02*
X2864Y3046D01*
X2890Y3046D02*
X2927Y3046D01*
X3127Y3046D02*
X3164Y3046D01*
X3190Y3046D02*
X3227Y3046D01*
X2827Y3045D02*
X2863Y3045D01*
X2891Y3045D02*
X2927Y3045D01*
X3127Y3045D02*
X3163Y3045D01*
X3191Y3045D02*
X3227Y3045D01*
X2827Y3044D02*
X2862Y3044D01*
X2892Y3044D02*
X2927Y3044D01*
X3127Y3044D02*
X3162Y3044D01*
X3192Y3044D02*
X3227Y3044D01*
X2826Y3043D02*
X2862Y3043D01*
X2892Y3043D02*
X2928Y3043D01*
X3126Y3043D02*
X3162Y3043D01*
X3192Y3043D02*
X3228Y3043D01*
X2826Y3042D02*
X2862Y3042D01*
X2893Y3042D02*
X2928Y3042D01*
X3126Y3042D02*
X3161Y3042D01*
X3192Y3042D02*
X3228Y3042D01*
X2826Y3041D02*
X2861Y3041D01*
X2893Y3041D02*
X2928Y3041D01*
X3126Y3041D02*
X3161Y3041D01*
X3193Y3041D02*
X3228Y3041D01*
X2826Y3040D02*
X2861Y3040D01*
X2893Y3040D02*
X2928Y3040D01*
X3126Y3040D02*
X3161Y3040D01*
X3193Y3040D02*
X3228Y3040D01*
X2826Y3039D02*
X2861Y3039D01*
X2893Y3039D02*
X2928Y3039D01*
X3126Y3039D02*
X3161Y3039D01*
X3193Y3039D02*
X3228Y3039D01*
X2826Y3038D02*
X2861Y3038D01*
X2893Y3038D02*
X2928Y3038D01*
X3126Y3038D02*
X3161Y3038D01*
X3193Y3038D02*
X3228Y3038D01*
X2826Y3037D02*
X2861Y3037D01*
X2893Y3037D02*
X2928Y3037D01*
X3125Y3037D02*
X3161Y3037D01*
X3193Y3037D02*
X3228Y3037D01*
X2826Y3036D02*
X2861Y3036D01*
X2893Y3036D02*
X2928Y3036D01*
X3126Y3036D02*
X3161Y3036D01*
X3193Y3036D02*
X3228Y3036D01*
X2826Y3035D02*
X2861Y3035D01*
X2893Y3035D02*
X2928Y3035D01*
X3126Y3035D02*
X3161Y3035D01*
X3193Y3035D02*
X3228Y3035D01*
X2826Y3034D02*
X2861Y3034D01*
X2893Y3034D02*
X2928Y3034D01*
X3126Y3034D02*
X3161Y3034D01*
X3193Y3034D02*
X3228Y3034D01*
X2826Y3033D02*
X2861Y3033D01*
X2893Y3033D02*
X2928Y3033D01*
X3126Y3033D02*
X3161Y3033D01*
X3193Y3033D02*
X3228Y3033D01*
X2826Y3032D02*
X2861Y3032D01*
X2893Y3032D02*
X2928Y3032D01*
X3126Y3032D02*
X3161Y3032D01*
X3193Y3032D02*
X3228Y3032D01*
X2826Y3031D02*
X2862Y3031D01*
X2892Y3031D02*
X2928Y3031D01*
X3126Y3031D02*
X3162Y3031D01*
X3192Y3031D02*
X3228Y3031D01*
X2826Y3030D02*
X2862Y3030D01*
X2892Y3030D02*
X2928Y3030D01*
X3126Y3030D02*
X3162Y3030D01*
X3192Y3030D02*
X3228Y3030D01*
X2827Y3029D02*
X2863Y3029D01*
X2891Y3029D02*
X2927Y3029D01*
X3127Y3029D02*
X3162Y3029D01*
X3191Y3029D02*
X3227Y3029D01*
X2827Y3028D02*
X2863Y3028D01*
X2891Y3028D02*
X2927Y3028D01*
X3127Y3028D02*
X3163Y3028D01*
X3191Y3028D02*
X3227Y3028D01*
X2827Y3027D02*
X2864Y3027D01*
X2890Y3027D02*
X2927Y3027D01*
X3127Y3027D02*
X3164Y3027D01*
X3190Y3027D02*
X3227Y3027D01*
X2828Y3026D02*
X2865Y3026D01*
X2889Y3026D02*
X2926Y3026D01*
X3128Y3026D02*
X3165Y3026D01*
X3189Y3026D02*
X3226Y3026D01*
X2828Y3025D02*
X2866Y3025D01*
X2888Y3025D02*
X2926Y3025D01*
X3128Y3025D02*
X3166Y3025D01*
X3188Y3025D02*
X3226Y3025D01*
X2829Y3024D02*
X2867Y3024D01*
X2887Y3024D02*
X2925Y3024D01*
X3129Y3024D02*
X3167Y3024D01*
X3187Y3024D02*
X3225Y3024D01*
X2829Y3023D02*
X2868Y3023D01*
X2886Y3023D02*
X2925Y3023D01*
X3129Y3023D02*
X3168Y3023D01*
X3186Y3023D02*
X3225Y3023D01*
X2830Y3022D02*
X2870Y3022D01*
X2884Y3022D02*
X2924Y3022D01*
X3130Y3022D02*
X3170Y3022D01*
X3184Y3022D02*
X3224Y3022D01*
X2831Y3021D02*
X2873Y3021D01*
X2881Y3021D02*
X2923Y3021D01*
X3131Y3021D02*
X3173Y3021D01*
X3181Y3021D02*
X3223Y3021D01*
X2832Y3020D02*
X2922Y3020D01*
X3132Y3020D02*
X3222Y3020D01*
X2832Y3019D02*
X2922Y3019D01*
X3132Y3019D02*
X3221Y3019D01*
X2833Y3018D02*
X2921Y3018D01*
X3133Y3018D02*
X3221Y3018D01*
X2835Y3017D02*
X2919Y3017D01*
X3135Y3017D02*
X3219Y3017D01*
X2836Y3016D02*
X2918Y3016D01*
X3136Y3016D02*
X3218Y3016D01*
X2837Y3015D02*
X2917Y3015D01*
X3137Y3015D02*
X3217Y3015D01*
X2839Y3014D02*
X2915Y3014D01*
X3139Y3014D02*
X3215Y3014D01*
X2841Y3013D02*
X2913Y3013D01*
X3141Y3013D02*
X3213Y3013D01*
X2843Y3012D02*
X2911Y3012D01*
X3143Y3012D02*
X3211Y3012D01*
X2847Y3011D02*
X2907Y3011D01*
X3147Y3011D02*
X3207Y3011D01*
X2846Y2962D02*
X2908Y2962D01*
X3146Y2962D02*
X3208Y2962D01*
X2843Y2961D02*
X2911Y2961D01*
X3142Y2961D02*
X3211Y2961D01*
X2840Y2960D02*
X2914Y2960D01*
X3140Y2960D02*
X3214Y2960D01*
X2838Y2959D02*
X2916Y2959D01*
X3138Y2959D02*
X3216Y2959D01*
X2837Y2958D02*
X2917Y2958D01*
X3137Y2958D02*
X3217Y2958D01*
X2836Y2957D02*
X2918Y2957D01*
X3135Y2957D02*
X3218Y2957D01*
X2834Y2956D02*
X2920Y2956D01*
X3134Y2956D02*
X3220Y2956D01*
X2833Y2955D02*
X2921Y2955D01*
X3133Y2955D02*
X3221Y2955D01*
X2832Y2954D02*
X2922Y2954D01*
X3132Y2954D02*
X3222Y2954D01*
X2831Y2953D02*
X2923Y2953D01*
X3131Y2953D02*
X3223Y2953D01*
X2831Y2952D02*
X2872Y2952D01*
X2882Y2952D02*
X2923Y2952D01*
X3131Y2952D02*
X3172Y2952D01*
X3182Y2952D02*
X3223Y2952D01*
X2830Y2951D02*
X2870Y2951D01*
X2884Y2951D02*
X2924Y2951D01*
X3130Y2951D02*
X3170Y2951D01*
X3184Y2951D02*
X3224Y2951D01*
X2829Y2950D02*
X2868Y2950D01*
X2886Y2950D02*
X2925Y2950D01*
X3129Y2950D02*
X3168Y2950D01*
X3186Y2950D02*
X3225Y2950D01*
X2829Y2949D02*
X2866Y2949D01*
X2888Y2949D02*
X2925Y2949D01*
X3129Y2949D02*
X3166Y2949D01*
X3187Y2949D02*
X3225Y2949D01*
X2828Y2948D02*
X2865Y2948D01*
X2889Y2948D02*
X2926Y2948D01*
X3128Y2948D02*
X3165Y2948D01*
X3189Y2948D02*
X3226Y2948D01*
X2828Y2947D02*
X2864Y2947D01*
X2890Y2947D02*
X2926Y2947D01*
X3128Y2947D02*
X3164Y2947D01*
X3190Y2947D02*
X3226Y2947D01*
X2827Y2946D02*
X2864Y2946D01*
X2890Y2946D02*
X2927Y2946D01*
X3127Y2946D02*
X3164Y2946D01*
X3190Y2946D02*
X3227Y2946D01*
X2827Y2945D02*
X2863Y2945D01*
X2891Y2945D02*
X2927Y2945D01*
X3127Y2945D02*
X3163Y2945D01*
X3191Y2945D02*
X3227Y2945D01*
X2827Y2944D02*
X2862Y2944D01*
X2892Y2944D02*
X2927Y2944D01*
X3127Y2944D02*
X3162Y2944D01*
X3192Y2944D02*
X3227Y2944D01*
X2826Y2943D02*
X2862Y2943D01*
X2892Y2943D02*
X2928Y2943D01*
X3126Y2943D02*
X3162Y2943D01*
X3192Y2943D02*
X3228Y2943D01*
X2826Y2942D02*
X2861Y2942D01*
X2893Y2942D02*
X2928Y2942D01*
X3126Y2942D02*
X3161Y2942D01*
X3192Y2942D02*
X3228Y2942D01*
X2826Y2941D02*
X2861Y2941D01*
X2893Y2941D02*
X2928Y2941D01*
X3126Y2941D02*
X3161Y2941D01*
X3193Y2941D02*
X3228Y2941D01*
X2826Y2940D02*
X2861Y2940D01*
X2893Y2940D02*
X2928Y2940D01*
X3126Y2940D02*
X3161Y2940D01*
X3193Y2940D02*
X3228Y2940D01*
X2826Y2939D02*
X2861Y2939D01*
X2893Y2939D02*
X2928Y2939D01*
X3126Y2939D02*
X3161Y2939D01*
X3193Y2939D02*
X3228Y2939D01*
X2826Y2938D02*
X2861Y2938D01*
X2893Y2938D02*
X2928Y2938D01*
X3126Y2938D02*
X3161Y2938D01*
X3193Y2938D02*
X3228Y2938D01*
X2826Y2937D02*
X2861Y2937D01*
X2893Y2937D02*
X2928Y2937D01*
X3125Y2937D02*
X3161Y2937D01*
X3193Y2937D02*
X3228Y2937D01*
X2826Y2936D02*
X2861Y2936D01*
X2893Y2936D02*
X2928Y2936D01*
X3126Y2936D02*
X3161Y2936D01*
X3193Y2936D02*
X3228Y2936D01*
X2826Y2935D02*
X2861Y2935D01*
X2893Y2935D02*
X2928Y2935D01*
X3126Y2935D02*
X3161Y2935D01*
X3193Y2935D02*
X3228Y2935D01*
X2826Y2934D02*
X2861Y2934D01*
X2893Y2934D02*
X2928Y2934D01*
X3126Y2934D02*
X3161Y2934D01*
X3193Y2934D02*
X3228Y2934D01*
X2826Y2933D02*
X2861Y2933D01*
X2893Y2933D02*
X2928Y2933D01*
X3126Y2933D02*
X3161Y2933D01*
X3193Y2933D02*
X3228Y2933D01*
X2826Y2932D02*
X2861Y2932D01*
X2893Y2932D02*
X2928Y2932D01*
X3126Y2932D02*
X3161Y2932D01*
X3193Y2932D02*
X3228Y2932D01*
X2826Y2931D02*
X2862Y2931D01*
X2892Y2931D02*
X2928Y2931D01*
X3126Y2931D02*
X3162Y2931D01*
X3192Y2931D02*
X3228Y2931D01*
X2826Y2930D02*
X2862Y2930D01*
X2892Y2930D02*
X2928Y2930D01*
X3126Y2930D02*
X3162Y2930D01*
X3192Y2930D02*
X3228Y2930D01*
X2827Y2929D02*
X2863Y2929D01*
X2891Y2929D02*
X2927Y2929D01*
X3127Y2929D02*
X3162Y2929D01*
X3191Y2929D02*
X3227Y2929D01*
X2827Y2928D02*
X2863Y2928D01*
X2891Y2928D02*
X2927Y2928D01*
X3127Y2928D02*
X3163Y2928D01*
X3191Y2928D02*
X3227Y2928D01*
X2827Y2927D02*
X2864Y2927D01*
X2890Y2927D02*
X2927Y2927D01*
X3127Y2927D02*
X3164Y2927D01*
X3190Y2927D02*
X3227Y2927D01*
X2828Y2926D02*
X2865Y2926D01*
X2889Y2926D02*
X2926Y2926D01*
X3128Y2926D02*
X3165Y2926D01*
X3189Y2926D02*
X3226Y2926D01*
X2828Y2925D02*
X2866Y2925D01*
X2888Y2925D02*
X2926Y2925D01*
X3128Y2925D02*
X3166Y2925D01*
X3188Y2925D02*
X3226Y2925D01*
X2829Y2924D02*
X2867Y2924D01*
X2887Y2924D02*
X2925Y2924D01*
X3129Y2924D02*
X3167Y2924D01*
X3187Y2924D02*
X3225Y2924D01*
X2829Y2923D02*
X2868Y2923D01*
X2886Y2923D02*
X2925Y2923D01*
X3129Y2923D02*
X3168Y2923D01*
X3186Y2923D02*
X3225Y2923D01*
X2830Y2922D02*
X2870Y2922D01*
X2884Y2922D02*
X2924Y2922D01*
X3130Y2922D02*
X3170Y2922D01*
X3184Y2922D02*
X3224Y2922D01*
X2831Y2921D02*
X2873Y2921D01*
X2881Y2921D02*
X2923Y2921D01*
X3131Y2921D02*
X3173Y2921D01*
X3181Y2921D02*
X3223Y2921D01*
X2832Y2920D02*
X2922Y2920D01*
X3132Y2920D02*
X3222Y2920D01*
X2833Y2919D02*
X2921Y2919D01*
X3132Y2919D02*
X3221Y2919D01*
X2833Y2918D02*
X2921Y2918D01*
X3133Y2918D02*
X3221Y2918D01*
X2835Y2917D02*
X2919Y2917D01*
X3135Y2917D02*
X3219Y2917D01*
X2836Y2916D02*
X2918Y2916D01*
X3136Y2916D02*
X3218Y2916D01*
X2837Y2915D02*
X2917Y2915D01*
X3137Y2915D02*
X3217Y2915D01*
X2839Y2914D02*
X2915Y2914D01*
X3139Y2914D02*
X3215Y2914D01*
X2841Y2913D02*
X2913Y2913D01*
X3141Y2913D02*
X3213Y2913D01*
X2843Y2912D02*
X2911Y2912D01*
X3143Y2912D02*
X3211Y2912D01*
X2847Y2911D02*
X2907Y2911D01*
X3147Y2911D02*
X3207Y2911D01*
X2846Y2862D02*
X2908Y2862D01*
X3146Y2862D02*
X3208Y2862D01*
X2842Y2861D02*
X2912Y2861D01*
X3142Y2861D02*
X3211Y2861D01*
X2840Y2860D02*
X2914Y2860D01*
X3140Y2860D02*
X3214Y2860D01*
X2838Y2859D02*
X2916Y2859D01*
X3138Y2859D02*
X3216Y2859D01*
X2837Y2858D02*
X2917Y2858D01*
X3137Y2858D02*
X3217Y2858D01*
X2836Y2857D02*
X2918Y2857D01*
X3135Y2857D02*
X3218Y2857D01*
X2834Y2856D02*
X2920Y2856D01*
X3134Y2856D02*
X3220Y2856D01*
X2833Y2855D02*
X2921Y2855D01*
X3133Y2855D02*
X3221Y2855D01*
X2832Y2854D02*
X2922Y2854D01*
X3132Y2854D02*
X3222Y2854D01*
X2831Y2853D02*
X2923Y2853D01*
X3131Y2853D02*
X3223Y2853D01*
X2831Y2852D02*
X2872Y2852D01*
X2882Y2852D02*
X2923Y2852D01*
X3131Y2852D02*
X3172Y2852D01*
X3182Y2852D02*
X3223Y2852D01*
X2830Y2851D02*
X2870Y2851D01*
X2884Y2851D02*
X2924Y2851D01*
X3130Y2851D02*
X3170Y2851D01*
X3184Y2851D02*
X3224Y2851D01*
X2829Y2850D02*
X2868Y2850D01*
X2886Y2850D02*
X2925Y2850D01*
X3129Y2850D02*
X3168Y2850D01*
X3186Y2850D02*
X3225Y2850D01*
X2829Y2849D02*
X2866Y2849D01*
X2888Y2849D02*
X2925Y2849D01*
X3129Y2849D02*
X3166Y2849D01*
X3188Y2849D02*
X3225Y2849D01*
X2828Y2848D02*
X2865Y2848D01*
X2889Y2848D02*
X2926Y2848D01*
X3128Y2848D02*
X3165Y2848D01*
X3189Y2848D02*
X3226Y2848D01*
X2828Y2847D02*
X2864Y2847D01*
X2890Y2847D02*
X2926Y2847D01*
X3128Y2847D02*
X3164Y2847D01*
X3190Y2847D02*
X3226Y2847D01*
X2827Y2846D02*
X2864Y2846D01*
X2890Y2846D02*
X2927Y2846D01*
X3127Y2846D02*
X3164Y2846D01*
X3190Y2846D02*
X3227Y2846D01*
X2827Y2845D02*
X2863Y2845D01*
X2891Y2845D02*
X2927Y2845D01*
X3127Y2845D02*
X3163Y2845D01*
X3191Y2845D02*
X3227Y2845D01*
X2827Y2844D02*
X2862Y2844D01*
X2892Y2844D02*
X2927Y2844D01*
X3127Y2844D02*
X3162Y2844D01*
X3192Y2844D02*
X3227Y2844D01*
X2826Y2843D02*
X2862Y2843D01*
X2892Y2843D02*
X2928Y2843D01*
X3126Y2843D02*
X3162Y2843D01*
X3192Y2843D02*
X3228Y2843D01*
X2826Y2842D02*
X2861Y2842D01*
X2893Y2842D02*
X2928Y2842D01*
X3126Y2842D02*
X3161Y2842D01*
X3192Y2842D02*
X3228Y2842D01*
X2826Y2841D02*
X2861Y2841D01*
X2893Y2841D02*
X2928Y2841D01*
X3126Y2841D02*
X3161Y2841D01*
X3193Y2841D02*
X3228Y2841D01*
X2826Y2840D02*
X2861Y2840D01*
X2893Y2840D02*
X2928Y2840D01*
X3126Y2840D02*
X3161Y2840D01*
X3193Y2840D02*
X3228Y2840D01*
X2826Y2839D02*
X2861Y2839D01*
X2893Y2839D02*
X2928Y2839D01*
X3126Y2839D02*
X3161Y2839D01*
X3193Y2839D02*
X3228Y2839D01*
X2826Y2838D02*
X2861Y2838D01*
X2893Y2838D02*
X2928Y2838D01*
X3126Y2838D02*
X3161Y2838D01*
X3193Y2838D02*
X3228Y2838D01*
X2826Y2837D02*
X2861Y2837D01*
X2893Y2837D02*
X2928Y2837D01*
X3125Y2837D02*
X3161Y2837D01*
X3193Y2837D02*
X3228Y2837D01*
X2826Y2836D02*
X2861Y2836D01*
X2893Y2836D02*
X2928Y2836D01*
X3126Y2836D02*
X3161Y2836D01*
X3193Y2836D02*
X3228Y2836D01*
X2826Y2835D02*
X2861Y2835D01*
X2893Y2835D02*
X2928Y2835D01*
X3126Y2835D02*
X3161Y2835D01*
X3193Y2835D02*
X3228Y2835D01*
X2826Y2834D02*
X2861Y2834D01*
X2893Y2834D02*
X2928Y2834D01*
X3126Y2834D02*
X3161Y2834D01*
X3193Y2834D02*
X3228Y2834D01*
X2826Y2833D02*
X2861Y2833D01*
X2893Y2833D02*
X2928Y2833D01*
X3126Y2833D02*
X3161Y2833D01*
X3193Y2833D02*
X3228Y2833D01*
X2826Y2832D02*
X2861Y2832D01*
X2893Y2832D02*
X2928Y2832D01*
X3126Y2832D02*
X3161Y2832D01*
X3193Y2832D02*
X3228Y2832D01*
X2826Y2831D02*
X2862Y2831D01*
X2892Y2831D02*
X2928Y2831D01*
X3126Y2831D02*
X3162Y2831D01*
X3192Y2831D02*
X3228Y2831D01*
X2826Y2830D02*
X2862Y2830D01*
X2892Y2830D02*
X2928Y2830D01*
X3126Y2830D02*
X3162Y2830D01*
X3192Y2830D02*
X3228Y2830D01*
X2827Y2829D02*
X2863Y2829D01*
X2891Y2829D02*
X2927Y2829D01*
X3127Y2829D02*
X3162Y2829D01*
X3191Y2829D02*
X3227Y2829D01*
X2827Y2828D02*
X2863Y2828D01*
X2891Y2828D02*
X2927Y2828D01*
X3127Y2828D02*
X3163Y2828D01*
X3191Y2828D02*
X3227Y2828D01*
X2827Y2827D02*
X2864Y2827D01*
X2890Y2827D02*
X2927Y2827D01*
X3127Y2827D02*
X3164Y2827D01*
X3190Y2827D02*
X3227Y2827D01*
X2828Y2826D02*
X2865Y2826D01*
X2889Y2826D02*
X2926Y2826D01*
X3128Y2826D02*
X3165Y2826D01*
X3189Y2826D02*
X3226Y2826D01*
X2828Y2825D02*
X2866Y2825D01*
X2888Y2825D02*
X2926Y2825D01*
X3128Y2825D02*
X3166Y2825D01*
X3188Y2825D02*
X3226Y2825D01*
X2829Y2824D02*
X2867Y2824D01*
X2887Y2824D02*
X2925Y2824D01*
X3129Y2824D02*
X3167Y2824D01*
X3187Y2824D02*
X3225Y2824D01*
X2829Y2823D02*
X2868Y2823D01*
X2886Y2823D02*
X2925Y2823D01*
X3129Y2823D02*
X3168Y2823D01*
X3186Y2823D02*
X3225Y2823D01*
X2830Y2822D02*
X2870Y2822D01*
X2884Y2822D02*
X2924Y2822D01*
X3130Y2822D02*
X3170Y2822D01*
X3184Y2822D02*
X3224Y2822D01*
X2831Y2821D02*
X2873Y2821D01*
X2881Y2821D02*
X2923Y2821D01*
X3131Y2821D02*
X3173Y2821D01*
X3181Y2821D02*
X3223Y2821D01*
X2832Y2820D02*
X2922Y2820D01*
X3132Y2820D02*
X3222Y2820D01*
X2833Y2819D02*
X2921Y2819D01*
X3132Y2819D02*
X3221Y2819D01*
X2833Y2818D02*
X2921Y2818D01*
X3133Y2818D02*
X3221Y2818D01*
X2835Y2817D02*
X2919Y2817D01*
X3135Y2817D02*
X3219Y2817D01*
X2836Y2816D02*
X2918Y2816D01*
X3136Y2816D02*
X3218Y2816D01*
X2837Y2815D02*
X2917Y2815D01*
X3137Y2815D02*
X3217Y2815D01*
X2839Y2814D02*
X2915Y2814D01*
X3139Y2814D02*
X3215Y2814D01*
X2841Y2813D02*
X2913Y2813D01*
X3141Y2813D02*
X3213Y2813D01*
X2843Y2812D02*
X2911Y2812D01*
X3143Y2812D02*
X3211Y2812D01*
X2847Y2811D02*
X2907Y2811D01*
X3147Y2811D02*
X3207Y2811D01*
X2846Y2762D02*
X2908Y2762D01*
X3146Y2762D02*
X3208Y2762D01*
X2842Y2761D02*
X2912Y2761D01*
X3142Y2761D02*
X3211Y2761D01*
X2840Y2760D02*
X2914Y2760D01*
X3140Y2760D02*
X3214Y2760D01*
X2838Y2759D02*
X2916Y2759D01*
X3138Y2759D02*
X3216Y2759D01*
X2837Y2758D02*
X2917Y2758D01*
X3137Y2758D02*
X3217Y2758D01*
X2836Y2757D02*
X2918Y2757D01*
X3135Y2757D02*
X3218Y2757D01*
X2834Y2756D02*
X2920Y2756D01*
X3134Y2756D02*
X3220Y2756D01*
X2833Y2755D02*
X2921Y2755D01*
X3133Y2755D02*
X3221Y2755D01*
X2832Y2754D02*
X2922Y2754D01*
X3132Y2754D02*
X3222Y2754D01*
X2831Y2753D02*
X2923Y2753D01*
X3131Y2753D02*
X3223Y2753D01*
X2831Y2752D02*
X2872Y2752D01*
X2882Y2752D02*
X2923Y2752D01*
X3131Y2752D02*
X3172Y2752D01*
X3182Y2752D02*
X3223Y2752D01*
X2830Y2751D02*
X2870Y2751D01*
X2884Y2751D02*
X2924Y2751D01*
X3130Y2751D02*
X3170Y2751D01*
X3184Y2751D02*
X3224Y2751D01*
X2829Y2750D02*
X2868Y2750D01*
X2886Y2750D02*
X2925Y2750D01*
X3129Y2750D02*
X3168Y2750D01*
X3186Y2750D02*
X3225Y2750D01*
X2829Y2749D02*
X2866Y2749D01*
X2888Y2749D02*
X2925Y2749D01*
X3129Y2749D02*
X3166Y2749D01*
X3188Y2749D02*
X3225Y2749D01*
X2828Y2748D02*
X2865Y2748D01*
X2889Y2748D02*
X2926Y2748D01*
X3128Y2748D02*
X3165Y2748D01*
X3189Y2748D02*
X3226Y2748D01*
X2828Y2747D02*
X2864Y2747D01*
X2890Y2747D02*
X2926Y2747D01*
X3128Y2747D02*
X3164Y2747D01*
X3190Y2747D02*
X3226Y2747D01*
X2827Y2746D02*
X2864Y2746D01*
X2890Y2746D02*
X2927Y2746D01*
X3127Y2746D02*
X3164Y2746D01*
X3190Y2746D02*
X3227Y2746D01*
X2827Y2745D02*
X2863Y2745D01*
X2891Y2745D02*
X2927Y2745D01*
X3127Y2745D02*
X3163Y2745D01*
X3191Y2745D02*
X3227Y2745D01*
X2827Y2744D02*
X2862Y2744D01*
X2892Y2744D02*
X2927Y2744D01*
X3127Y2744D02*
X3162Y2744D01*
X3192Y2744D02*
X3227Y2744D01*
X2826Y2743D02*
X2862Y2743D01*
X2892Y2743D02*
X2928Y2743D01*
X3126Y2743D02*
X3162Y2743D01*
X3192Y2743D02*
X3228Y2743D01*
X2826Y2742D02*
X2861Y2742D01*
X2893Y2742D02*
X2928Y2742D01*
X3126Y2742D02*
X3161Y2742D01*
X3192Y2742D02*
X3228Y2742D01*
X2826Y2741D02*
X2861Y2741D01*
X2893Y2741D02*
X2928Y2741D01*
X3126Y2741D02*
X3161Y2741D01*
X3193Y2741D02*
X3228Y2741D01*
X2826Y2740D02*
X2861Y2740D01*
X2893Y2740D02*
X2928Y2740D01*
X3126Y2740D02*
X3161Y2740D01*
X3193Y2740D02*
X3228Y2740D01*
X2826Y2739D02*
X2861Y2739D01*
X2893Y2739D02*
X2928Y2739D01*
X3126Y2739D02*
X3161Y2739D01*
X3193Y2739D02*
X3228Y2739D01*
X2826Y2738D02*
X2861Y2738D01*
X2893Y2738D02*
X2928Y2738D01*
X3126Y2738D02*
X3161Y2738D01*
X3193Y2738D02*
X3228Y2738D01*
X2826Y2737D02*
X2861Y2737D01*
X2893Y2737D02*
X2928Y2737D01*
X3125Y2737D02*
X3161Y2737D01*
X3193Y2737D02*
X3228Y2737D01*
X2826Y2736D02*
X2861Y2736D01*
X2893Y2736D02*
X2928Y2736D01*
X3126Y2736D02*
X3161Y2736D01*
X3193Y2736D02*
X3228Y2736D01*
X2826Y2735D02*
X2861Y2735D01*
X2893Y2735D02*
X2928Y2735D01*
X3126Y2735D02*
X3161Y2735D01*
X3193Y2735D02*
X3228Y2735D01*
X2826Y2734D02*
X2861Y2734D01*
X2893Y2734D02*
X2928Y2734D01*
X3126Y2734D02*
X3161Y2734D01*
X3193Y2734D02*
X3228Y2734D01*
X2826Y2733D02*
X2861Y2733D01*
X2893Y2733D02*
X2928Y2733D01*
X3126Y2733D02*
X3161Y2733D01*
X3193Y2733D02*
X3228Y2733D01*
X2826Y2732D02*
X2861Y2732D01*
X2893Y2732D02*
X2928Y2732D01*
X3126Y2732D02*
X3161Y2732D01*
X3193Y2732D02*
X3228Y2732D01*
X2826Y2731D02*
X2862Y2731D01*
X2892Y2731D02*
X2928Y2731D01*
X3126Y2731D02*
X3162Y2731D01*
X3192Y2731D02*
X3228Y2731D01*
X2826Y2730D02*
X2862Y2730D01*
X2892Y2730D02*
X2928Y2730D01*
X3126Y2730D02*
X3162Y2730D01*
X3192Y2730D02*
X3228Y2730D01*
X2827Y2729D02*
X2863Y2729D01*
X2891Y2729D02*
X2927Y2729D01*
X3127Y2729D02*
X3163Y2729D01*
X3191Y2729D02*
X3227Y2729D01*
X2827Y2728D02*
X2863Y2728D01*
X2891Y2728D02*
X2927Y2728D01*
X3127Y2728D02*
X3163Y2728D01*
X3191Y2728D02*
X3227Y2728D01*
X2827Y2727D02*
X2864Y2727D01*
X2890Y2727D02*
X2927Y2727D01*
X3127Y2727D02*
X3164Y2727D01*
X3190Y2727D02*
X3227Y2727D01*
X2828Y2726D02*
X2865Y2726D01*
X2889Y2726D02*
X2926Y2726D01*
X3128Y2726D02*
X3165Y2726D01*
X3189Y2726D02*
X3226Y2726D01*
X2828Y2725D02*
X2866Y2725D01*
X2888Y2725D02*
X2926Y2725D01*
X3128Y2725D02*
X3166Y2725D01*
X3188Y2725D02*
X3226Y2725D01*
X2829Y2724D02*
X2867Y2724D01*
X2887Y2724D02*
X2925Y2724D01*
X3129Y2724D02*
X3167Y2724D01*
X3187Y2724D02*
X3225Y2724D01*
X2829Y2723D02*
X2868Y2723D01*
X2886Y2723D02*
X2925Y2723D01*
X3129Y2723D02*
X3168Y2723D01*
X3186Y2723D02*
X3225Y2723D01*
X2830Y2722D02*
X2870Y2722D01*
X2884Y2722D02*
X2924Y2722D01*
X3130Y2722D02*
X3170Y2722D01*
X3184Y2722D02*
X3224Y2722D01*
X2831Y2721D02*
X2873Y2721D01*
X2881Y2721D02*
X2923Y2721D01*
X3131Y2721D02*
X3173Y2721D01*
X3181Y2721D02*
X3223Y2721D01*
X2832Y2720D02*
X2922Y2720D01*
X3132Y2720D02*
X3222Y2720D01*
X2833Y2719D02*
X2921Y2719D01*
X3132Y2719D02*
X3221Y2719D01*
X2833Y2718D02*
X2921Y2718D01*
X3133Y2718D02*
X3221Y2718D01*
X2835Y2717D02*
X2919Y2717D01*
X3135Y2717D02*
X3219Y2717D01*
X2836Y2716D02*
X2918Y2716D01*
X3136Y2716D02*
X3218Y2716D01*
X2837Y2715D02*
X2917Y2715D01*
X3137Y2715D02*
X3217Y2715D01*
X2839Y2714D02*
X2915Y2714D01*
X3139Y2714D02*
X3215Y2714D01*
X2841Y2713D02*
X2913Y2713D01*
X3141Y2713D02*
X3213Y2713D01*
X2843Y2712D02*
X2911Y2712D01*
X3143Y2712D02*
X3211Y2712D01*
X2847Y2711D02*
X2907Y2711D01*
X3147Y2711D02*
X3207Y2711D01*
X2846Y2662D02*
X2908Y2662D01*
X3146Y2662D02*
X3208Y2662D01*
X2842Y2661D02*
X2912Y2661D01*
X3142Y2661D02*
X3212Y2661D01*
X2840Y2660D02*
X2914Y2660D01*
X3140Y2660D02*
X3214Y2660D01*
X2838Y2659D02*
X2916Y2659D01*
X3138Y2659D02*
X3216Y2659D01*
X2837Y2658D02*
X2917Y2658D01*
X3137Y2658D02*
X3217Y2658D01*
X2836Y2657D02*
X2918Y2657D01*
X3135Y2657D02*
X3218Y2657D01*
X2834Y2656D02*
X2920Y2656D01*
X3134Y2656D02*
X3220Y2656D01*
X2833Y2655D02*
X2921Y2655D01*
X3133Y2655D02*
X3221Y2655D01*
X2832Y2654D02*
X2922Y2654D01*
X3132Y2654D02*
X3222Y2654D01*
X2831Y2653D02*
X2923Y2653D01*
X3131Y2653D02*
X3223Y2653D01*
X2831Y2652D02*
X2872Y2652D01*
X2882Y2652D02*
X2923Y2652D01*
X3131Y2652D02*
X3172Y2652D01*
X3182Y2652D02*
X3223Y2652D01*
X2830Y2651D02*
X2870Y2651D01*
X2884Y2651D02*
X2924Y2651D01*
X3130Y2651D02*
X3170Y2651D01*
X3184Y2651D02*
X3224Y2651D01*
X2829Y2650D02*
X2868Y2650D01*
X2886Y2650D02*
X2925Y2650D01*
X3129Y2650D02*
X3168Y2650D01*
X3186Y2650D02*
X3225Y2650D01*
X2829Y2649D02*
X2866Y2649D01*
X2888Y2649D02*
X2925Y2649D01*
X3129Y2649D02*
X3166Y2649D01*
X3188Y2649D02*
X3225Y2649D01*
X2828Y2648D02*
X2865Y2648D01*
X2889Y2648D02*
X2926Y2648D01*
X3128Y2648D02*
X3165Y2648D01*
X3189Y2648D02*
X3226Y2648D01*
X2828Y2647D02*
X2864Y2647D01*
X2890Y2647D02*
X2926Y2647D01*
X3128Y2647D02*
X3164Y2647D01*
X3190Y2647D02*
X3226Y2647D01*
X2827Y2646D02*
X2864Y2646D01*
X2890Y2646D02*
X2927Y2646D01*
X3127Y2646D02*
X3164Y2646D01*
X3190Y2646D02*
X3227Y2646D01*
X2827Y2645D02*
X2863Y2645D01*
X2891Y2645D02*
X2927Y2645D01*
X3127Y2645D02*
X3163Y2645D01*
X3191Y2645D02*
X3227Y2645D01*
X2827Y2644D02*
X2862Y2644D01*
X2892Y2644D02*
X2927Y2644D01*
X3127Y2644D02*
X3162Y2644D01*
X3192Y2644D02*
X3227Y2644D01*
X2826Y2643D02*
X2862Y2643D01*
X2892Y2643D02*
X2928Y2643D01*
X3126Y2643D02*
X3162Y2643D01*
X3192Y2643D02*
X3228Y2643D01*
X2826Y2642D02*
X2861Y2642D01*
X2893Y2642D02*
X2928Y2642D01*
X3126Y2642D02*
X3161Y2642D01*
X3192Y2642D02*
X3228Y2642D01*
X2826Y2641D02*
X2861Y2641D01*
X2893Y2641D02*
X2928Y2641D01*
X3126Y2641D02*
X3161Y2641D01*
X3193Y2641D02*
X3228Y2641D01*
X2826Y2640D02*
X2861Y2640D01*
X2893Y2640D02*
X2928Y2640D01*
X3126Y2640D02*
X3161Y2640D01*
X3193Y2640D02*
X3228Y2640D01*
X2826Y2639D02*
X2861Y2639D01*
X2893Y2639D02*
X2928Y2639D01*
X3126Y2639D02*
X3161Y2639D01*
X3193Y2639D02*
X3228Y2639D01*
X2826Y2638D02*
X2861Y2638D01*
X2893Y2638D02*
X2928Y2638D01*
X3126Y2638D02*
X3161Y2638D01*
X3193Y2638D02*
X3228Y2638D01*
X2826Y2637D02*
X2861Y2637D01*
X2893Y2637D02*
X2928Y2637D01*
X3125Y2637D02*
X3161Y2637D01*
X3193Y2637D02*
X3228Y2637D01*
X2826Y2636D02*
X2861Y2636D01*
X2893Y2636D02*
X2928Y2636D01*
X3126Y2636D02*
X3161Y2636D01*
X3193Y2636D02*
X3228Y2636D01*
X2826Y2635D02*
X2861Y2635D01*
X2893Y2635D02*
X2928Y2635D01*
X3126Y2635D02*
X3161Y2635D01*
X3193Y2635D02*
X3228Y2635D01*
X2826Y2634D02*
X2861Y2634D01*
X2893Y2634D02*
X2928Y2634D01*
X3126Y2634D02*
X3161Y2634D01*
X3193Y2634D02*
X3228Y2634D01*
X2826Y2633D02*
X2861Y2633D01*
X2893Y2633D02*
X2928Y2633D01*
X3126Y2633D02*
X3161Y2633D01*
X3193Y2633D02*
X3228Y2633D01*
X2826Y2632D02*
X2861Y2632D01*
X2893Y2632D02*
X2928Y2632D01*
X3126Y2632D02*
X3161Y2632D01*
X3193Y2632D02*
X3228Y2632D01*
X2826Y2631D02*
X2862Y2631D01*
X2892Y2631D02*
X2928Y2631D01*
X3126Y2631D02*
X3162Y2631D01*
X3192Y2631D02*
X3228Y2631D01*
X2826Y2630D02*
X2862Y2630D01*
X2892Y2630D02*
X2928Y2630D01*
X3126Y2630D02*
X3162Y2630D01*
X3192Y2630D02*
X3228Y2630D01*
X2827Y2629D02*
X2863Y2629D01*
X2891Y2629D02*
X2927Y2629D01*
X3127Y2629D02*
X3163Y2629D01*
X3191Y2629D02*
X3227Y2629D01*
X2827Y2628D02*
X2863Y2628D01*
X2891Y2628D02*
X2927Y2628D01*
X3127Y2628D02*
X3163Y2628D01*
X3191Y2628D02*
X3227Y2628D01*
X2827Y2627D02*
X2864Y2627D01*
X2890Y2627D02*
X2927Y2627D01*
X3127Y2627D02*
X3164Y2627D01*
X3190Y2627D02*
X3227Y2627D01*
X2828Y2626D02*
X2865Y2626D01*
X2889Y2626D02*
X2926Y2626D01*
X3128Y2626D02*
X3165Y2626D01*
X3189Y2626D02*
X3226Y2626D01*
X2828Y2625D02*
X2866Y2625D01*
X2888Y2625D02*
X2926Y2625D01*
X3128Y2625D02*
X3166Y2625D01*
X3188Y2625D02*
X3226Y2625D01*
X2829Y2624D02*
X2867Y2624D01*
X2887Y2624D02*
X2925Y2624D01*
X3129Y2624D02*
X3167Y2624D01*
X3187Y2624D02*
X3225Y2624D01*
X2829Y2623D02*
X2868Y2623D01*
X2886Y2623D02*
X2925Y2623D01*
X3129Y2623D02*
X3168Y2623D01*
X3186Y2623D02*
X3225Y2623D01*
X2830Y2622D02*
X2870Y2622D01*
X2884Y2622D02*
X2924Y2622D01*
X3130Y2622D02*
X3170Y2622D01*
X3184Y2622D02*
X3224Y2622D01*
X2831Y2621D02*
X2873Y2621D01*
X2881Y2621D02*
X2923Y2621D01*
X3131Y2621D02*
X3173Y2621D01*
X3181Y2621D02*
X3223Y2621D01*
X2832Y2620D02*
X2922Y2620D01*
X3132Y2620D02*
X3222Y2620D01*
X2833Y2619D02*
X2921Y2619D01*
X3132Y2619D02*
X3221Y2619D01*
X2833Y2618D02*
X2921Y2618D01*
X3133Y2618D02*
X3221Y2618D01*
X2835Y2617D02*
X2919Y2617D01*
X3135Y2617D02*
X3219Y2617D01*
X2836Y2616D02*
X2918Y2616D01*
X3136Y2616D02*
X3218Y2616D01*
X2837Y2615D02*
X2917Y2615D01*
X3137Y2615D02*
X3217Y2615D01*
X2839Y2614D02*
X2915Y2614D01*
X3139Y2614D02*
X3215Y2614D01*
X2841Y2613D02*
X2913Y2613D01*
X3141Y2613D02*
X3213Y2613D01*
X2843Y2612D02*
X2911Y2612D01*
X3143Y2612D02*
X3211Y2612D01*
X2847Y2611D02*
X2907Y2611D01*
X3147Y2611D02*
X3207Y2611D01*
X2846Y2562D02*
X2908Y2562D01*
X3146Y2562D02*
X3208Y2562D01*
X2842Y2561D02*
X2912Y2561D01*
X3142Y2561D02*
X3212Y2561D01*
X2840Y2560D02*
X2914Y2560D01*
X3140Y2560D02*
X3214Y2560D01*
X2838Y2559D02*
X2916Y2559D01*
X3138Y2559D02*
X3216Y2559D01*
X2837Y2558D02*
X2917Y2558D01*
X3137Y2558D02*
X3217Y2558D01*
X2835Y2557D02*
X2919Y2557D01*
X3135Y2557D02*
X3218Y2557D01*
X2834Y2556D02*
X2920Y2556D01*
X3134Y2556D02*
X3220Y2556D01*
X2833Y2555D02*
X2921Y2555D01*
X3133Y2555D02*
X3221Y2555D01*
X2832Y2554D02*
X2922Y2554D01*
X3132Y2554D02*
X3222Y2554D01*
X2831Y2553D02*
X2923Y2553D01*
X3131Y2553D02*
X3223Y2553D01*
X2831Y2552D02*
X2872Y2552D01*
X2882Y2552D02*
X2923Y2552D01*
X3131Y2552D02*
X3172Y2552D01*
X3182Y2552D02*
X3223Y2552D01*
X2830Y2551D02*
X2870Y2551D01*
X2884Y2551D02*
X2924Y2551D01*
X3130Y2551D02*
X3170Y2551D01*
X3184Y2551D02*
X3224Y2551D01*
X2829Y2550D02*
X2868Y2550D01*
X2886Y2550D02*
X2925Y2550D01*
X3129Y2550D02*
X3168Y2550D01*
X3186Y2550D02*
X3225Y2550D01*
X2829Y2549D02*
X2866Y2549D01*
X2888Y2549D02*
X2925Y2549D01*
X3129Y2549D02*
X3166Y2549D01*
X3188Y2549D02*
X3225Y2549D01*
X2828Y2548D02*
X2865Y2548D01*
X2889Y2548D02*
X2926Y2548D01*
X3128Y2548D02*
X3165Y2548D01*
X3189Y2548D02*
X3226Y2548D01*
X2828Y2547D02*
X2864Y2547D01*
X2890Y2547D02*
X2926Y2547D01*
X3128Y2547D02*
X3164Y2547D01*
X3190Y2547D02*
X3226Y2547D01*
X2827Y2546D02*
X2864Y2546D01*
X2890Y2546D02*
X2927Y2546D01*
X3127Y2546D02*
X3164Y2546D01*
X3190Y2546D02*
X3227Y2546D01*
X2827Y2545D02*
X2863Y2545D01*
X2891Y2545D02*
X2927Y2545D01*
X3127Y2545D02*
X3163Y2545D01*
X3191Y2545D02*
X3227Y2545D01*
X2827Y2544D02*
X2862Y2544D01*
X2892Y2544D02*
X2927Y2544D01*
X3127Y2544D02*
X3162Y2544D01*
X3192Y2544D02*
X3227Y2544D01*
X2826Y2543D02*
X2862Y2543D01*
X2892Y2543D02*
X2928Y2543D01*
X3126Y2543D02*
X3162Y2543D01*
X3192Y2543D02*
X3228Y2543D01*
X2826Y2542D02*
X2861Y2542D01*
X2893Y2542D02*
X2928Y2542D01*
X3126Y2542D02*
X3161Y2542D01*
X3192Y2542D02*
X3228Y2542D01*
X2826Y2541D02*
X2861Y2541D01*
X2893Y2541D02*
X2928Y2541D01*
X3126Y2541D02*
X3161Y2541D01*
X3193Y2541D02*
X3228Y2541D01*
X2826Y2540D02*
X2861Y2540D01*
X2893Y2540D02*
X2928Y2540D01*
X3126Y2540D02*
X3161Y2540D01*
X3193Y2540D02*
X3228Y2540D01*
X2826Y2539D02*
X2861Y2539D01*
X2893Y2539D02*
X2928Y2539D01*
X3126Y2539D02*
X3161Y2539D01*
X3193Y2539D02*
X3228Y2539D01*
X2826Y2538D02*
X2861Y2538D01*
X2893Y2538D02*
X2928Y2538D01*
X3126Y2538D02*
X3161Y2538D01*
X3193Y2538D02*
X3228Y2538D01*
X2826Y2537D02*
X2861Y2537D01*
X2893Y2537D02*
X2928Y2537D01*
X3125Y2537D02*
X3161Y2537D01*
X3193Y2537D02*
X3228Y2537D01*
X2826Y2536D02*
X2861Y2536D01*
X2893Y2536D02*
X2928Y2536D01*
X3126Y2536D02*
X3161Y2536D01*
X3193Y2536D02*
X3228Y2536D01*
X2826Y2535D02*
X2861Y2535D01*
X2893Y2535D02*
X2928Y2535D01*
X3126Y2535D02*
X3161Y2535D01*
X3193Y2535D02*
X3228Y2535D01*
X2826Y2534D02*
X2861Y2534D01*
X2893Y2534D02*
X2928Y2534D01*
X3126Y2534D02*
X3161Y2534D01*
X3193Y2534D02*
X3228Y2534D01*
X2826Y2533D02*
X2861Y2533D01*
X2893Y2533D02*
X2928Y2533D01*
X3126Y2533D02*
X3161Y2533D01*
X3193Y2533D02*
X3228Y2533D01*
X2826Y2532D02*
X2861Y2532D01*
X2893Y2532D02*
X2928Y2532D01*
X3126Y2532D02*
X3161Y2532D01*
X3193Y2532D02*
X3228Y2532D01*
X2826Y2531D02*
X2862Y2531D01*
X2892Y2531D02*
X2928Y2531D01*
X3126Y2531D02*
X3162Y2531D01*
X3192Y2531D02*
X3228Y2531D01*
X2826Y2530D02*
X2862Y2530D01*
X2892Y2530D02*
X2928Y2530D01*
X3126Y2530D02*
X3162Y2530D01*
X3192Y2530D02*
X3228Y2530D01*
X2827Y2529D02*
X2863Y2529D01*
X2891Y2529D02*
X2927Y2529D01*
X3127Y2529D02*
X3163Y2529D01*
X3191Y2529D02*
X3227Y2529D01*
X2827Y2528D02*
X2863Y2528D01*
X2891Y2528D02*
X2927Y2528D01*
X3127Y2528D02*
X3163Y2528D01*
X3191Y2528D02*
X3227Y2528D01*
X2827Y2527D02*
X2864Y2527D01*
X2890Y2527D02*
X2927Y2527D01*
X3127Y2527D02*
X3164Y2527D01*
X3190Y2527D02*
X3227Y2527D01*
X2828Y2526D02*
X2865Y2526D01*
X2889Y2526D02*
X2926Y2526D01*
X3128Y2526D02*
X3165Y2526D01*
X3189Y2526D02*
X3226Y2526D01*
X2828Y2525D02*
X2866Y2525D01*
X2888Y2525D02*
X2926Y2525D01*
X3128Y2525D02*
X3166Y2525D01*
X3188Y2525D02*
X3226Y2525D01*
X2829Y2524D02*
X2867Y2524D01*
X2887Y2524D02*
X2925Y2524D01*
X3129Y2524D02*
X3167Y2524D01*
X3187Y2524D02*
X3225Y2524D01*
X2829Y2523D02*
X2868Y2523D01*
X2886Y2523D02*
X2925Y2523D01*
X3129Y2523D02*
X3168Y2523D01*
X3186Y2523D02*
X3225Y2523D01*
X2830Y2522D02*
X2870Y2522D01*
X2884Y2522D02*
X2924Y2522D01*
X3130Y2522D02*
X3170Y2522D01*
X3184Y2522D02*
X3224Y2522D01*
X2831Y2521D02*
X2873Y2521D01*
X2881Y2521D02*
X2923Y2521D01*
X3131Y2521D02*
X3173Y2521D01*
X3181Y2521D02*
X3223Y2521D01*
X2832Y2520D02*
X2922Y2520D01*
X3132Y2520D02*
X3222Y2520D01*
X2833Y2519D02*
X2921Y2519D01*
X3132Y2519D02*
X3221Y2519D01*
X2833Y2518D02*
X2921Y2518D01*
X3133Y2518D02*
X3221Y2518D01*
X2835Y2517D02*
X2919Y2517D01*
X3135Y2517D02*
X3219Y2517D01*
X2836Y2516D02*
X2918Y2516D01*
X3136Y2516D02*
X3218Y2516D01*
X2837Y2515D02*
X2917Y2515D01*
X3137Y2515D02*
X3217Y2515D01*
X2839Y2514D02*
X2915Y2514D01*
X3139Y2514D02*
X3215Y2514D01*
X2841Y2513D02*
X2913Y2513D01*
X3141Y2513D02*
X3213Y2513D01*
X2843Y2512D02*
X2911Y2512D01*
X3143Y2512D02*
X3211Y2512D01*
X2847Y2511D02*
X2907Y2511D01*
X3147Y2511D02*
X3206Y2511D01*
D02*
G04 End of Copper0*
M02*