G04 MADE WITH FRITZING*
G04 WWW.FRITZING.ORG*
G04 DOUBLE SIDED*
G04 HOLES PLATED*
G04 CONTOUR ON CENTER OF CONTOUR VECTOR*
%ASAXBY*%
%FSLAX23Y23*%
%MOIN*%
%OFA0B0*%
%SFA1.0B1.0*%
%ADD10C,0.085000*%
%ADD11C,0.088000*%
%ADD12C,0.062000*%
%ADD13C,0.090000*%
%ADD14R,0.090000X0.090000*%
%ADD15R,0.001000X0.001000*%
%LNMASK0*%
G90*
G70*
G54D10*
X5378Y435D03*
X5378Y835D03*
X5378Y3035D03*
X5378Y3435D03*
X5378Y4391D03*
X5378Y4791D03*
X5378Y1735D03*
X5378Y2135D03*
X978Y3035D03*
X978Y3435D03*
X978Y4435D03*
X978Y4835D03*
X978Y1691D03*
X978Y2091D03*
X978Y335D03*
X978Y735D03*
X5378Y3535D03*
X5378Y3835D03*
X5378Y2235D03*
X5378Y2535D03*
X5378Y935D03*
X5378Y1235D03*
X5378Y4891D03*
X5378Y5191D03*
X978Y3535D03*
X978Y3835D03*
X978Y2191D03*
X978Y2491D03*
X978Y4935D03*
X978Y5235D03*
X978Y835D03*
X978Y1135D03*
G54D11*
X578Y3591D03*
X578Y3435D03*
X578Y3279D03*
X578Y2247D03*
X578Y2091D03*
X578Y1935D03*
X4978Y991D03*
X4978Y835D03*
X4978Y679D03*
X4978Y3591D03*
X4978Y3435D03*
X4978Y3279D03*
X4978Y2291D03*
X4978Y2135D03*
X4978Y1979D03*
X4978Y4947D03*
X4978Y4791D03*
X4978Y4635D03*
X578Y947D03*
X578Y791D03*
X578Y635D03*
X578Y4991D03*
X578Y4835D03*
X578Y4679D03*
G54D12*
X2878Y3235D03*
X2878Y3135D03*
X2878Y3035D03*
X2878Y2935D03*
X2878Y2835D03*
X2878Y2735D03*
X2878Y2635D03*
X2878Y2535D03*
X3178Y2535D03*
X3178Y2635D03*
X3178Y2735D03*
X3178Y2835D03*
X3178Y2935D03*
X3178Y3035D03*
X3178Y3135D03*
X3178Y3235D03*
G54D11*
X2078Y3947D03*
X2078Y3791D03*
X2078Y3635D03*
X2078Y3347D03*
X2078Y3191D03*
X2078Y3035D03*
X2078Y2747D03*
X2078Y2591D03*
X2078Y2435D03*
X2078Y2147D03*
X2078Y1991D03*
X2078Y1835D03*
X3978Y2147D03*
X3978Y1991D03*
X3978Y1835D03*
X3978Y2747D03*
X3978Y2591D03*
X3978Y2435D03*
X3978Y3347D03*
X3978Y3191D03*
X3978Y3035D03*
X3978Y3947D03*
X3978Y3791D03*
X3978Y3635D03*
G54D13*
X3078Y3635D03*
X2940Y3635D03*
X3078Y2035D03*
X2878Y2035D03*
X2678Y2035D03*
X3278Y2035D03*
G54D14*
X3078Y3635D03*
X3278Y2035D03*
G54D15*
X2846Y3267D02*
X2908Y3267D01*
X3146Y3267D02*
X3208Y3267D01*
X2842Y3266D02*
X2912Y3266D01*
X3142Y3266D02*
X3212Y3266D01*
X2839Y3265D02*
X2915Y3265D01*
X3139Y3265D02*
X3215Y3265D01*
X2837Y3264D02*
X2917Y3264D01*
X3137Y3264D02*
X3217Y3264D01*
X2835Y3263D02*
X2919Y3263D01*
X3135Y3263D02*
X3219Y3263D01*
X2834Y3262D02*
X2920Y3262D01*
X3134Y3262D02*
X3220Y3262D01*
X2832Y3261D02*
X2922Y3261D01*
X3132Y3261D02*
X3222Y3261D01*
X2831Y3260D02*
X2923Y3260D01*
X3131Y3260D02*
X3223Y3260D01*
X2830Y3259D02*
X2924Y3259D01*
X3130Y3259D02*
X3224Y3259D01*
X2829Y3258D02*
X2925Y3258D01*
X3129Y3258D02*
X3225Y3258D01*
X2828Y3257D02*
X2926Y3257D01*
X3128Y3257D02*
X3226Y3257D01*
X2827Y3256D02*
X2927Y3256D01*
X3127Y3256D02*
X3227Y3256D01*
X2827Y3255D02*
X2927Y3255D01*
X3127Y3255D02*
X3227Y3255D01*
X2826Y3254D02*
X2928Y3254D01*
X3126Y3254D02*
X3228Y3254D01*
X2825Y3253D02*
X2929Y3253D01*
X3125Y3253D02*
X3229Y3253D01*
X2825Y3252D02*
X2929Y3252D01*
X3125Y3252D02*
X3229Y3252D01*
X2824Y3251D02*
X2930Y3251D01*
X3124Y3251D02*
X3230Y3251D01*
X2824Y3250D02*
X2930Y3250D01*
X3124Y3250D02*
X3230Y3250D01*
X2823Y3249D02*
X2931Y3249D01*
X3123Y3249D02*
X3231Y3249D01*
X2823Y3248D02*
X2931Y3248D01*
X3123Y3248D02*
X3231Y3248D01*
X2822Y3247D02*
X2873Y3247D01*
X2881Y3247D02*
X2932Y3247D01*
X3122Y3247D02*
X3173Y3247D01*
X3181Y3247D02*
X3232Y3247D01*
X2822Y3246D02*
X2871Y3246D01*
X2883Y3246D02*
X2932Y3246D01*
X3122Y3246D02*
X3171Y3246D01*
X3183Y3246D02*
X3232Y3246D01*
X2822Y3245D02*
X2869Y3245D01*
X2885Y3245D02*
X2932Y3245D01*
X3122Y3245D02*
X3169Y3245D01*
X3185Y3245D02*
X3232Y3245D01*
X2822Y3244D02*
X2868Y3244D01*
X2886Y3244D02*
X2932Y3244D01*
X3121Y3244D02*
X3168Y3244D01*
X3186Y3244D02*
X3232Y3244D01*
X2821Y3243D02*
X2868Y3243D01*
X2886Y3243D02*
X2933Y3243D01*
X3121Y3243D02*
X3168Y3243D01*
X3186Y3243D02*
X3233Y3243D01*
X2821Y3242D02*
X2867Y3242D01*
X2887Y3242D02*
X2933Y3242D01*
X3121Y3242D02*
X3167Y3242D01*
X3187Y3242D02*
X3233Y3242D01*
X2821Y3241D02*
X2866Y3241D01*
X2888Y3241D02*
X2933Y3241D01*
X3121Y3241D02*
X3166Y3241D01*
X3188Y3241D02*
X3233Y3241D01*
X2821Y3240D02*
X2866Y3240D01*
X2888Y3240D02*
X2933Y3240D01*
X3121Y3240D02*
X3166Y3240D01*
X3188Y3240D02*
X3233Y3240D01*
X2821Y3239D02*
X2866Y3239D01*
X2888Y3239D02*
X2933Y3239D01*
X3121Y3239D02*
X3166Y3239D01*
X3188Y3239D02*
X3233Y3239D01*
X2821Y3238D02*
X2866Y3238D01*
X2888Y3238D02*
X2933Y3238D01*
X3121Y3238D02*
X3166Y3238D01*
X3188Y3238D02*
X3233Y3238D01*
X2821Y3237D02*
X2866Y3237D01*
X2888Y3237D02*
X2933Y3237D01*
X3121Y3237D02*
X3166Y3237D01*
X3188Y3237D02*
X3233Y3237D01*
X2821Y3236D02*
X2866Y3236D01*
X2888Y3236D02*
X2933Y3236D01*
X3121Y3236D02*
X3166Y3236D01*
X3188Y3236D02*
X3233Y3236D01*
X2821Y3235D02*
X2866Y3235D01*
X2888Y3235D02*
X2933Y3235D01*
X3121Y3235D02*
X3166Y3235D01*
X3188Y3235D02*
X3233Y3235D01*
X2821Y3234D02*
X2866Y3234D01*
X2888Y3234D02*
X2933Y3234D01*
X3121Y3234D02*
X3166Y3234D01*
X3188Y3234D02*
X3233Y3234D01*
X2821Y3233D02*
X2866Y3233D01*
X2888Y3233D02*
X2933Y3233D01*
X3121Y3233D02*
X3166Y3233D01*
X3188Y3233D02*
X3233Y3233D01*
X2821Y3232D02*
X2866Y3232D01*
X2888Y3232D02*
X2933Y3232D01*
X3121Y3232D02*
X3166Y3232D01*
X3188Y3232D02*
X3233Y3232D01*
X2821Y3231D02*
X2867Y3231D01*
X2887Y3231D02*
X2933Y3231D01*
X3121Y3231D02*
X3167Y3231D01*
X3187Y3231D02*
X3233Y3231D01*
X2821Y3230D02*
X2868Y3230D01*
X2886Y3230D02*
X2933Y3230D01*
X3121Y3230D02*
X3168Y3230D01*
X3186Y3230D02*
X3233Y3230D01*
X2822Y3229D02*
X2869Y3229D01*
X2885Y3229D02*
X2932Y3229D01*
X3122Y3229D02*
X3169Y3229D01*
X3185Y3229D02*
X3232Y3229D01*
X2822Y3228D02*
X2870Y3228D01*
X2884Y3228D02*
X2932Y3228D01*
X3122Y3228D02*
X3170Y3228D01*
X3184Y3228D02*
X3232Y3228D01*
X2822Y3227D02*
X2871Y3227D01*
X2883Y3227D02*
X2932Y3227D01*
X3122Y3227D02*
X3171Y3227D01*
X3183Y3227D02*
X3232Y3227D01*
X2822Y3226D02*
X2874Y3226D01*
X2881Y3226D02*
X2931Y3226D01*
X3122Y3226D02*
X3173Y3226D01*
X3180Y3226D02*
X3231Y3226D01*
X2823Y3225D02*
X2931Y3225D01*
X3123Y3225D02*
X3231Y3225D01*
X2823Y3224D02*
X2931Y3224D01*
X3123Y3224D02*
X3231Y3224D01*
X2824Y3223D02*
X2930Y3223D01*
X3124Y3223D02*
X3230Y3223D01*
X2824Y3222D02*
X2930Y3222D01*
X3124Y3222D02*
X3230Y3222D01*
X2825Y3221D02*
X2929Y3221D01*
X3125Y3221D02*
X3229Y3221D01*
X2825Y3220D02*
X2929Y3220D01*
X3125Y3220D02*
X3229Y3220D01*
X2826Y3219D02*
X2928Y3219D01*
X3126Y3219D02*
X3228Y3219D01*
X2827Y3218D02*
X2927Y3218D01*
X3127Y3218D02*
X3227Y3218D01*
X2828Y3217D02*
X2926Y3217D01*
X3128Y3217D02*
X3226Y3217D01*
X2828Y3216D02*
X2926Y3216D01*
X3128Y3216D02*
X3226Y3216D01*
X2829Y3215D02*
X2925Y3215D01*
X3129Y3215D02*
X3225Y3215D01*
X2830Y3214D02*
X2924Y3214D01*
X3130Y3214D02*
X3224Y3214D01*
X2831Y3213D02*
X2923Y3213D01*
X3131Y3213D02*
X3223Y3213D01*
X2833Y3212D02*
X2921Y3212D01*
X3133Y3212D02*
X3221Y3212D01*
X2834Y3211D02*
X2920Y3211D01*
X3134Y3211D02*
X3220Y3211D01*
X2836Y3210D02*
X2918Y3210D01*
X3136Y3210D02*
X3218Y3210D01*
X2838Y3209D02*
X2916Y3209D01*
X3138Y3209D02*
X3216Y3209D01*
X2840Y3208D02*
X2914Y3208D01*
X3140Y3208D02*
X3214Y3208D01*
X2843Y3207D02*
X2911Y3207D01*
X3143Y3207D02*
X3211Y3207D01*
X2847Y3206D02*
X2907Y3206D01*
X3147Y3206D02*
X3207Y3206D01*
X2846Y3167D02*
X2908Y3167D01*
X3146Y3167D02*
X3208Y3167D01*
X2842Y3166D02*
X2912Y3166D01*
X3142Y3166D02*
X3212Y3166D01*
X2839Y3165D02*
X2915Y3165D01*
X3139Y3165D02*
X3215Y3165D01*
X2837Y3164D02*
X2917Y3164D01*
X3137Y3164D02*
X3217Y3164D01*
X2835Y3163D02*
X2919Y3163D01*
X3135Y3163D02*
X3219Y3163D01*
X2834Y3162D02*
X2920Y3162D01*
X3134Y3162D02*
X3220Y3162D01*
X2832Y3161D02*
X2922Y3161D01*
X3132Y3161D02*
X3222Y3161D01*
X2831Y3160D02*
X2923Y3160D01*
X3131Y3160D02*
X3223Y3160D01*
X2830Y3159D02*
X2924Y3159D01*
X3130Y3159D02*
X3224Y3159D01*
X2829Y3158D02*
X2925Y3158D01*
X3129Y3158D02*
X3225Y3158D01*
X2828Y3157D02*
X2926Y3157D01*
X3128Y3157D02*
X3226Y3157D01*
X2827Y3156D02*
X2927Y3156D01*
X3127Y3156D02*
X3227Y3156D01*
X2827Y3155D02*
X2927Y3155D01*
X3127Y3155D02*
X3227Y3155D01*
X2826Y3154D02*
X2928Y3154D01*
X3126Y3154D02*
X3228Y3154D01*
X2825Y3153D02*
X2929Y3153D01*
X3125Y3153D02*
X3229Y3153D01*
X2825Y3152D02*
X2929Y3152D01*
X3125Y3152D02*
X3229Y3152D01*
X2824Y3151D02*
X2930Y3151D01*
X3124Y3151D02*
X3230Y3151D01*
X2824Y3150D02*
X2930Y3150D01*
X3124Y3150D02*
X3230Y3150D01*
X2823Y3149D02*
X2931Y3149D01*
X3123Y3149D02*
X3231Y3149D01*
X2823Y3148D02*
X2931Y3148D01*
X3123Y3148D02*
X3231Y3148D01*
X2822Y3147D02*
X2873Y3147D01*
X2881Y3147D02*
X2932Y3147D01*
X3122Y3147D02*
X3173Y3147D01*
X3181Y3147D02*
X3232Y3147D01*
X2822Y3146D02*
X2871Y3146D01*
X2883Y3146D02*
X2932Y3146D01*
X3122Y3146D02*
X3171Y3146D01*
X3183Y3146D02*
X3232Y3146D01*
X2822Y3145D02*
X2869Y3145D01*
X2885Y3145D02*
X2932Y3145D01*
X3122Y3145D02*
X3169Y3145D01*
X3185Y3145D02*
X3232Y3145D01*
X2821Y3144D02*
X2868Y3144D01*
X2886Y3144D02*
X2932Y3144D01*
X3121Y3144D02*
X3168Y3144D01*
X3186Y3144D02*
X3232Y3144D01*
X2821Y3143D02*
X2868Y3143D01*
X2886Y3143D02*
X2933Y3143D01*
X3121Y3143D02*
X3168Y3143D01*
X3186Y3143D02*
X3233Y3143D01*
X2821Y3142D02*
X2867Y3142D01*
X2887Y3142D02*
X2933Y3142D01*
X3121Y3142D02*
X3167Y3142D01*
X3187Y3142D02*
X3233Y3142D01*
X2821Y3141D02*
X2866Y3141D01*
X2888Y3141D02*
X2933Y3141D01*
X3121Y3141D02*
X3166Y3141D01*
X3188Y3141D02*
X3233Y3141D01*
X2821Y3140D02*
X2866Y3140D01*
X2888Y3140D02*
X2933Y3140D01*
X3121Y3140D02*
X3166Y3140D01*
X3188Y3140D02*
X3233Y3140D01*
X2821Y3139D02*
X2866Y3139D01*
X2888Y3139D02*
X2933Y3139D01*
X3121Y3139D02*
X3166Y3139D01*
X3188Y3139D02*
X3233Y3139D01*
X2821Y3138D02*
X2866Y3138D01*
X2888Y3138D02*
X2933Y3138D01*
X3121Y3138D02*
X3166Y3138D01*
X3188Y3138D02*
X3233Y3138D01*
X2821Y3137D02*
X2866Y3137D01*
X2888Y3137D02*
X2933Y3137D01*
X3121Y3137D02*
X3166Y3137D01*
X3188Y3137D02*
X3233Y3137D01*
X2821Y3136D02*
X2866Y3136D01*
X2888Y3136D02*
X2933Y3136D01*
X3121Y3136D02*
X3166Y3136D01*
X3188Y3136D02*
X3233Y3136D01*
X2821Y3135D02*
X2866Y3135D01*
X2888Y3135D02*
X2933Y3135D01*
X3121Y3135D02*
X3166Y3135D01*
X3188Y3135D02*
X3233Y3135D01*
X2821Y3134D02*
X2866Y3134D01*
X2888Y3134D02*
X2933Y3134D01*
X3121Y3134D02*
X3166Y3134D01*
X3188Y3134D02*
X3233Y3134D01*
X2821Y3133D02*
X2866Y3133D01*
X2888Y3133D02*
X2933Y3133D01*
X3121Y3133D02*
X3166Y3133D01*
X3188Y3133D02*
X3233Y3133D01*
X2821Y3132D02*
X2866Y3132D01*
X2888Y3132D02*
X2933Y3132D01*
X3121Y3132D02*
X3166Y3132D01*
X3188Y3132D02*
X3233Y3132D01*
X2821Y3131D02*
X2867Y3131D01*
X2887Y3131D02*
X2933Y3131D01*
X3121Y3131D02*
X3167Y3131D01*
X3187Y3131D02*
X3233Y3131D01*
X2821Y3130D02*
X2868Y3130D01*
X2886Y3130D02*
X2933Y3130D01*
X3121Y3130D02*
X3168Y3130D01*
X3186Y3130D02*
X3233Y3130D01*
X2822Y3129D02*
X2869Y3129D01*
X2885Y3129D02*
X2932Y3129D01*
X3122Y3129D02*
X3169Y3129D01*
X3185Y3129D02*
X3232Y3129D01*
X2822Y3128D02*
X2870Y3128D01*
X2884Y3128D02*
X2932Y3128D01*
X3122Y3128D02*
X3170Y3128D01*
X3184Y3128D02*
X3232Y3128D01*
X2822Y3127D02*
X2871Y3127D01*
X2883Y3127D02*
X2932Y3127D01*
X3122Y3127D02*
X3171Y3127D01*
X3183Y3127D02*
X3232Y3127D01*
X2823Y3126D02*
X2874Y3126D01*
X2881Y3126D02*
X2931Y3126D01*
X3122Y3126D02*
X3173Y3126D01*
X3180Y3126D02*
X3231Y3126D01*
X2823Y3125D02*
X2931Y3125D01*
X3123Y3125D02*
X3231Y3125D01*
X2823Y3124D02*
X2931Y3124D01*
X3123Y3124D02*
X3231Y3124D01*
X2824Y3123D02*
X2930Y3123D01*
X3124Y3123D02*
X3230Y3123D01*
X2824Y3122D02*
X2930Y3122D01*
X3124Y3122D02*
X3230Y3122D01*
X2825Y3121D02*
X2929Y3121D01*
X3125Y3121D02*
X3229Y3121D01*
X2825Y3120D02*
X2929Y3120D01*
X3125Y3120D02*
X3229Y3120D01*
X2826Y3119D02*
X2928Y3119D01*
X3126Y3119D02*
X3228Y3119D01*
X2827Y3118D02*
X2927Y3118D01*
X3127Y3118D02*
X3227Y3118D01*
X2828Y3117D02*
X2926Y3117D01*
X3128Y3117D02*
X3226Y3117D01*
X2828Y3116D02*
X2926Y3116D01*
X3128Y3116D02*
X3226Y3116D01*
X2829Y3115D02*
X2925Y3115D01*
X3129Y3115D02*
X3225Y3115D01*
X2830Y3114D02*
X2924Y3114D01*
X3130Y3114D02*
X3224Y3114D01*
X2831Y3113D02*
X2923Y3113D01*
X3131Y3113D02*
X3223Y3113D01*
X2833Y3112D02*
X2921Y3112D01*
X3133Y3112D02*
X3221Y3112D01*
X2834Y3111D02*
X2920Y3111D01*
X3134Y3111D02*
X3220Y3111D01*
X2836Y3110D02*
X2918Y3110D01*
X3136Y3110D02*
X3218Y3110D01*
X2838Y3109D02*
X2916Y3109D01*
X3138Y3109D02*
X3216Y3109D01*
X2840Y3108D02*
X2914Y3108D01*
X3140Y3108D02*
X3214Y3108D01*
X2843Y3107D02*
X2911Y3107D01*
X3143Y3107D02*
X3211Y3107D01*
X2847Y3106D02*
X2907Y3106D01*
X3147Y3106D02*
X3207Y3106D01*
X2846Y3067D02*
X2908Y3067D01*
X3146Y3067D02*
X3208Y3067D01*
X2842Y3066D02*
X2912Y3066D01*
X3142Y3066D02*
X3212Y3066D01*
X2839Y3065D02*
X2915Y3065D01*
X3139Y3065D02*
X3215Y3065D01*
X2837Y3064D02*
X2917Y3064D01*
X3137Y3064D02*
X3217Y3064D01*
X2835Y3063D02*
X2919Y3063D01*
X3135Y3063D02*
X3219Y3063D01*
X2834Y3062D02*
X2920Y3062D01*
X3134Y3062D02*
X3220Y3062D01*
X2832Y3061D02*
X2922Y3061D01*
X3132Y3061D02*
X3222Y3061D01*
X2831Y3060D02*
X2923Y3060D01*
X3131Y3060D02*
X3223Y3060D01*
X2830Y3059D02*
X2924Y3059D01*
X3130Y3059D02*
X3224Y3059D01*
X2829Y3058D02*
X2925Y3058D01*
X3129Y3058D02*
X3225Y3058D01*
X2828Y3057D02*
X2926Y3057D01*
X3128Y3057D02*
X3226Y3057D01*
X2827Y3056D02*
X2927Y3056D01*
X3127Y3056D02*
X3227Y3056D01*
X2827Y3055D02*
X2927Y3055D01*
X3127Y3055D02*
X3227Y3055D01*
X2826Y3054D02*
X2928Y3054D01*
X3126Y3054D02*
X3228Y3054D01*
X2825Y3053D02*
X2929Y3053D01*
X3125Y3053D02*
X3229Y3053D01*
X2825Y3052D02*
X2929Y3052D01*
X3125Y3052D02*
X3229Y3052D01*
X2824Y3051D02*
X2930Y3051D01*
X3124Y3051D02*
X3230Y3051D01*
X2824Y3050D02*
X2930Y3050D01*
X3124Y3050D02*
X3230Y3050D01*
X2823Y3049D02*
X2931Y3049D01*
X3123Y3049D02*
X3231Y3049D01*
X2823Y3048D02*
X2931Y3048D01*
X3123Y3048D02*
X3231Y3048D01*
X2822Y3047D02*
X2873Y3047D01*
X2881Y3047D02*
X2932Y3047D01*
X3122Y3047D02*
X3173Y3047D01*
X3181Y3047D02*
X3232Y3047D01*
X2822Y3046D02*
X2871Y3046D01*
X2883Y3046D02*
X2932Y3046D01*
X3122Y3046D02*
X3171Y3046D01*
X3183Y3046D02*
X3232Y3046D01*
X2822Y3045D02*
X2869Y3045D01*
X2885Y3045D02*
X2932Y3045D01*
X3122Y3045D02*
X3169Y3045D01*
X3185Y3045D02*
X3232Y3045D01*
X2821Y3044D02*
X2868Y3044D01*
X2886Y3044D02*
X2933Y3044D01*
X3121Y3044D02*
X3168Y3044D01*
X3186Y3044D02*
X3232Y3044D01*
X2821Y3043D02*
X2868Y3043D01*
X2886Y3043D02*
X2933Y3043D01*
X3121Y3043D02*
X3168Y3043D01*
X3186Y3043D02*
X3233Y3043D01*
X2821Y3042D02*
X2867Y3042D01*
X2887Y3042D02*
X2933Y3042D01*
X3121Y3042D02*
X3167Y3042D01*
X3187Y3042D02*
X3233Y3042D01*
X2821Y3041D02*
X2866Y3041D01*
X2888Y3041D02*
X2933Y3041D01*
X3121Y3041D02*
X3166Y3041D01*
X3188Y3041D02*
X3233Y3041D01*
X2821Y3040D02*
X2866Y3040D01*
X2888Y3040D02*
X2933Y3040D01*
X3121Y3040D02*
X3166Y3040D01*
X3188Y3040D02*
X3233Y3040D01*
X2821Y3039D02*
X2866Y3039D01*
X2888Y3039D02*
X2933Y3039D01*
X3121Y3039D02*
X3166Y3039D01*
X3188Y3039D02*
X3233Y3039D01*
X2821Y3038D02*
X2866Y3038D01*
X2888Y3038D02*
X2933Y3038D01*
X3121Y3038D02*
X3166Y3038D01*
X3188Y3038D02*
X3233Y3038D01*
X2821Y3037D02*
X2866Y3037D01*
X2888Y3037D02*
X2933Y3037D01*
X3121Y3037D02*
X3166Y3037D01*
X3188Y3037D02*
X3233Y3037D01*
X2821Y3036D02*
X2866Y3036D01*
X2888Y3036D02*
X2933Y3036D01*
X3121Y3036D02*
X3166Y3036D01*
X3188Y3036D02*
X3233Y3036D01*
X2821Y3035D02*
X2866Y3035D01*
X2888Y3035D02*
X2933Y3035D01*
X3121Y3035D02*
X3166Y3035D01*
X3188Y3035D02*
X3233Y3035D01*
X2821Y3034D02*
X2866Y3034D01*
X2888Y3034D02*
X2933Y3034D01*
X3121Y3034D02*
X3166Y3034D01*
X3188Y3034D02*
X3233Y3034D01*
X2821Y3033D02*
X2866Y3033D01*
X2888Y3033D02*
X2933Y3033D01*
X3121Y3033D02*
X3166Y3033D01*
X3188Y3033D02*
X3233Y3033D01*
X2821Y3032D02*
X2866Y3032D01*
X2888Y3032D02*
X2933Y3032D01*
X3121Y3032D02*
X3166Y3032D01*
X3188Y3032D02*
X3233Y3032D01*
X2821Y3031D02*
X2867Y3031D01*
X2887Y3031D02*
X2933Y3031D01*
X3121Y3031D02*
X3167Y3031D01*
X3187Y3031D02*
X3233Y3031D01*
X2821Y3030D02*
X2868Y3030D01*
X2886Y3030D02*
X2933Y3030D01*
X3121Y3030D02*
X3168Y3030D01*
X3186Y3030D02*
X3233Y3030D01*
X2822Y3029D02*
X2869Y3029D01*
X2885Y3029D02*
X2932Y3029D01*
X3122Y3029D02*
X3169Y3029D01*
X3185Y3029D02*
X3232Y3029D01*
X2822Y3028D02*
X2870Y3028D01*
X2884Y3028D02*
X2932Y3028D01*
X3122Y3028D02*
X3170Y3028D01*
X3184Y3028D02*
X3232Y3028D01*
X2822Y3027D02*
X2871Y3027D01*
X2883Y3027D02*
X2932Y3027D01*
X3122Y3027D02*
X3171Y3027D01*
X3183Y3027D02*
X3232Y3027D01*
X2823Y3026D02*
X2874Y3026D01*
X2880Y3026D02*
X2931Y3026D01*
X3122Y3026D02*
X3174Y3026D01*
X3180Y3026D02*
X3231Y3026D01*
X2823Y3025D02*
X2931Y3025D01*
X3123Y3025D02*
X3231Y3025D01*
X2823Y3024D02*
X2931Y3024D01*
X3123Y3024D02*
X3231Y3024D01*
X2824Y3023D02*
X2930Y3023D01*
X3124Y3023D02*
X3230Y3023D01*
X2824Y3022D02*
X2930Y3022D01*
X3124Y3022D02*
X3230Y3022D01*
X2825Y3021D02*
X2929Y3021D01*
X3125Y3021D02*
X3229Y3021D01*
X2825Y3020D02*
X2929Y3020D01*
X3125Y3020D02*
X3229Y3020D01*
X2826Y3019D02*
X2928Y3019D01*
X3126Y3019D02*
X3228Y3019D01*
X2827Y3018D02*
X2927Y3018D01*
X3127Y3018D02*
X3227Y3018D01*
X2828Y3017D02*
X2926Y3017D01*
X3128Y3017D02*
X3226Y3017D01*
X2828Y3016D02*
X2926Y3016D01*
X3128Y3016D02*
X3226Y3016D01*
X2829Y3015D02*
X2925Y3015D01*
X3129Y3015D02*
X3225Y3015D01*
X2830Y3014D02*
X2924Y3014D01*
X3130Y3014D02*
X3224Y3014D01*
X2831Y3013D02*
X2923Y3013D01*
X3131Y3013D02*
X3223Y3013D01*
X2833Y3012D02*
X2921Y3012D01*
X3133Y3012D02*
X3221Y3012D01*
X2834Y3011D02*
X2920Y3011D01*
X3134Y3011D02*
X3220Y3011D01*
X2836Y3010D02*
X2918Y3010D01*
X3136Y3010D02*
X3218Y3010D01*
X2838Y3009D02*
X2916Y3009D01*
X3138Y3009D02*
X3216Y3009D01*
X2840Y3008D02*
X2914Y3008D01*
X3140Y3008D02*
X3214Y3008D01*
X2843Y3007D02*
X2911Y3007D01*
X3143Y3007D02*
X3211Y3007D01*
X2847Y3006D02*
X2907Y3006D01*
X3147Y3006D02*
X3207Y3006D01*
X2846Y2967D02*
X2908Y2967D01*
X3146Y2967D02*
X3208Y2967D01*
X2842Y2966D02*
X2912Y2966D01*
X3142Y2966D02*
X3212Y2966D01*
X2839Y2965D02*
X2915Y2965D01*
X3139Y2965D02*
X3215Y2965D01*
X2837Y2964D02*
X2917Y2964D01*
X3137Y2964D02*
X3217Y2964D01*
X2835Y2963D02*
X2919Y2963D01*
X3135Y2963D02*
X3219Y2963D01*
X2834Y2962D02*
X2920Y2962D01*
X3134Y2962D02*
X3220Y2962D01*
X2832Y2961D02*
X2922Y2961D01*
X3132Y2961D02*
X3222Y2961D01*
X2831Y2960D02*
X2923Y2960D01*
X3131Y2960D02*
X3223Y2960D01*
X2830Y2959D02*
X2924Y2959D01*
X3130Y2959D02*
X3224Y2959D01*
X2829Y2958D02*
X2925Y2958D01*
X3129Y2958D02*
X3225Y2958D01*
X2828Y2957D02*
X2926Y2957D01*
X3128Y2957D02*
X3226Y2957D01*
X2827Y2956D02*
X2927Y2956D01*
X3127Y2956D02*
X3227Y2956D01*
X2827Y2955D02*
X2927Y2955D01*
X3127Y2955D02*
X3227Y2955D01*
X2826Y2954D02*
X2928Y2954D01*
X3126Y2954D02*
X3228Y2954D01*
X2825Y2953D02*
X2929Y2953D01*
X3125Y2953D02*
X3229Y2953D01*
X2825Y2952D02*
X2929Y2952D01*
X3125Y2952D02*
X3229Y2952D01*
X2824Y2951D02*
X2930Y2951D01*
X3124Y2951D02*
X3230Y2951D01*
X2824Y2950D02*
X2930Y2950D01*
X3124Y2950D02*
X3230Y2950D01*
X2823Y2949D02*
X2931Y2949D01*
X3123Y2949D02*
X3231Y2949D01*
X2823Y2948D02*
X2931Y2948D01*
X3123Y2948D02*
X3231Y2948D01*
X2822Y2947D02*
X2873Y2947D01*
X2881Y2947D02*
X2932Y2947D01*
X3122Y2947D02*
X3173Y2947D01*
X3181Y2947D02*
X3232Y2947D01*
X2822Y2946D02*
X2871Y2946D01*
X2883Y2946D02*
X2932Y2946D01*
X3122Y2946D02*
X3171Y2946D01*
X3183Y2946D02*
X3232Y2946D01*
X2822Y2945D02*
X2869Y2945D01*
X2885Y2945D02*
X2932Y2945D01*
X3122Y2945D02*
X3169Y2945D01*
X3185Y2945D02*
X3232Y2945D01*
X2821Y2944D02*
X2868Y2944D01*
X2886Y2944D02*
X2933Y2944D01*
X3121Y2944D02*
X3168Y2944D01*
X3186Y2944D02*
X3232Y2944D01*
X2821Y2943D02*
X2868Y2943D01*
X2886Y2943D02*
X2933Y2943D01*
X3121Y2943D02*
X3168Y2943D01*
X3186Y2943D02*
X3233Y2943D01*
X2821Y2942D02*
X2867Y2942D01*
X2887Y2942D02*
X2933Y2942D01*
X3121Y2942D02*
X3167Y2942D01*
X3187Y2942D02*
X3233Y2942D01*
X2821Y2941D02*
X2866Y2941D01*
X2888Y2941D02*
X2933Y2941D01*
X3121Y2941D02*
X3166Y2941D01*
X3188Y2941D02*
X3233Y2941D01*
X2821Y2940D02*
X2866Y2940D01*
X2888Y2940D02*
X2933Y2940D01*
X3121Y2940D02*
X3166Y2940D01*
X3188Y2940D02*
X3233Y2940D01*
X2821Y2939D02*
X2866Y2939D01*
X2888Y2939D02*
X2933Y2939D01*
X3121Y2939D02*
X3166Y2939D01*
X3188Y2939D02*
X3233Y2939D01*
X2821Y2938D02*
X2866Y2938D01*
X2888Y2938D02*
X2933Y2938D01*
X3121Y2938D02*
X3166Y2938D01*
X3188Y2938D02*
X3233Y2938D01*
X2821Y2937D02*
X2866Y2937D01*
X2888Y2937D02*
X2933Y2937D01*
X3121Y2937D02*
X3166Y2937D01*
X3188Y2937D02*
X3233Y2937D01*
X2821Y2936D02*
X2866Y2936D01*
X2888Y2936D02*
X2933Y2936D01*
X3121Y2936D02*
X3166Y2936D01*
X3188Y2936D02*
X3233Y2936D01*
X2821Y2935D02*
X2866Y2935D01*
X2888Y2935D02*
X2933Y2935D01*
X3121Y2935D02*
X3166Y2935D01*
X3188Y2935D02*
X3233Y2935D01*
X2821Y2934D02*
X2866Y2934D01*
X2888Y2934D02*
X2933Y2934D01*
X3121Y2934D02*
X3166Y2934D01*
X3188Y2934D02*
X3233Y2934D01*
X2821Y2933D02*
X2866Y2933D01*
X2888Y2933D02*
X2933Y2933D01*
X3121Y2933D02*
X3166Y2933D01*
X3188Y2933D02*
X3233Y2933D01*
X2821Y2932D02*
X2866Y2932D01*
X2888Y2932D02*
X2933Y2932D01*
X3121Y2932D02*
X3166Y2932D01*
X3188Y2932D02*
X3233Y2932D01*
X2821Y2931D02*
X2867Y2931D01*
X2887Y2931D02*
X2933Y2931D01*
X3121Y2931D02*
X3167Y2931D01*
X3187Y2931D02*
X3233Y2931D01*
X2821Y2930D02*
X2868Y2930D01*
X2886Y2930D02*
X2933Y2930D01*
X3121Y2930D02*
X3168Y2930D01*
X3186Y2930D02*
X3233Y2930D01*
X2822Y2929D02*
X2869Y2929D01*
X2885Y2929D02*
X2932Y2929D01*
X3122Y2929D02*
X3169Y2929D01*
X3185Y2929D02*
X3232Y2929D01*
X2822Y2928D02*
X2870Y2928D01*
X2884Y2928D02*
X2932Y2928D01*
X3122Y2928D02*
X3170Y2928D01*
X3184Y2928D02*
X3232Y2928D01*
X2822Y2927D02*
X2871Y2927D01*
X2883Y2927D02*
X2932Y2927D01*
X3122Y2927D02*
X3171Y2927D01*
X3183Y2927D02*
X3232Y2927D01*
X2823Y2926D02*
X2874Y2926D01*
X2880Y2926D02*
X2931Y2926D01*
X3122Y2926D02*
X3174Y2926D01*
X3180Y2926D02*
X3231Y2926D01*
X2823Y2925D02*
X2931Y2925D01*
X3123Y2925D02*
X3231Y2925D01*
X2823Y2924D02*
X2931Y2924D01*
X3123Y2924D02*
X3231Y2924D01*
X2824Y2923D02*
X2930Y2923D01*
X3124Y2923D02*
X3230Y2923D01*
X2824Y2922D02*
X2930Y2922D01*
X3124Y2922D02*
X3230Y2922D01*
X2825Y2921D02*
X2929Y2921D01*
X3125Y2921D02*
X3229Y2921D01*
X2825Y2920D02*
X2929Y2920D01*
X3125Y2920D02*
X3229Y2920D01*
X2826Y2919D02*
X2928Y2919D01*
X3126Y2919D02*
X3228Y2919D01*
X2827Y2918D02*
X2927Y2918D01*
X3127Y2918D02*
X3227Y2918D01*
X2828Y2917D02*
X2926Y2917D01*
X3128Y2917D02*
X3226Y2917D01*
X2828Y2916D02*
X2926Y2916D01*
X3128Y2916D02*
X3226Y2916D01*
X2829Y2915D02*
X2925Y2915D01*
X3129Y2915D02*
X3225Y2915D01*
X2830Y2914D02*
X2924Y2914D01*
X3130Y2914D02*
X3224Y2914D01*
X2831Y2913D02*
X2923Y2913D01*
X3131Y2913D02*
X3222Y2913D01*
X2833Y2912D02*
X2921Y2912D01*
X3133Y2912D02*
X3221Y2912D01*
X2834Y2911D02*
X2920Y2911D01*
X3134Y2911D02*
X3220Y2911D01*
X2836Y2910D02*
X2918Y2910D01*
X3136Y2910D02*
X3218Y2910D01*
X2838Y2909D02*
X2916Y2909D01*
X3138Y2909D02*
X3216Y2909D01*
X2840Y2908D02*
X2914Y2908D01*
X3140Y2908D02*
X3214Y2908D01*
X2843Y2907D02*
X2911Y2907D01*
X3143Y2907D02*
X3211Y2907D01*
X2847Y2906D02*
X2907Y2906D01*
X3147Y2906D02*
X3207Y2906D01*
X2846Y2867D02*
X2908Y2867D01*
X3146Y2867D02*
X3208Y2867D01*
X2842Y2866D02*
X2912Y2866D01*
X3142Y2866D02*
X3212Y2866D01*
X2839Y2865D02*
X2915Y2865D01*
X3139Y2865D02*
X3215Y2865D01*
X2837Y2864D02*
X2917Y2864D01*
X3137Y2864D02*
X3217Y2864D01*
X2835Y2863D02*
X2919Y2863D01*
X3135Y2863D02*
X3219Y2863D01*
X2834Y2862D02*
X2920Y2862D01*
X3134Y2862D02*
X3220Y2862D01*
X2832Y2861D02*
X2922Y2861D01*
X3132Y2861D02*
X3222Y2861D01*
X2831Y2860D02*
X2923Y2860D01*
X3131Y2860D02*
X3223Y2860D01*
X2830Y2859D02*
X2924Y2859D01*
X3130Y2859D02*
X3224Y2859D01*
X2829Y2858D02*
X2925Y2858D01*
X3129Y2858D02*
X3225Y2858D01*
X2828Y2857D02*
X2926Y2857D01*
X3128Y2857D02*
X3226Y2857D01*
X2827Y2856D02*
X2927Y2856D01*
X3127Y2856D02*
X3227Y2856D01*
X2827Y2855D02*
X2927Y2855D01*
X3127Y2855D02*
X3227Y2855D01*
X2826Y2854D02*
X2928Y2854D01*
X3126Y2854D02*
X3228Y2854D01*
X2825Y2853D02*
X2929Y2853D01*
X3125Y2853D02*
X3229Y2853D01*
X2825Y2852D02*
X2929Y2852D01*
X3125Y2852D02*
X3229Y2852D01*
X2824Y2851D02*
X2930Y2851D01*
X3124Y2851D02*
X3230Y2851D01*
X2824Y2850D02*
X2930Y2850D01*
X3124Y2850D02*
X3230Y2850D01*
X2823Y2849D02*
X2931Y2849D01*
X3123Y2849D02*
X3231Y2849D01*
X2823Y2848D02*
X2931Y2848D01*
X3123Y2848D02*
X3231Y2848D01*
X2822Y2847D02*
X2873Y2847D01*
X2881Y2847D02*
X2932Y2847D01*
X3122Y2847D02*
X3173Y2847D01*
X3181Y2847D02*
X3232Y2847D01*
X2822Y2846D02*
X2871Y2846D01*
X2883Y2846D02*
X2932Y2846D01*
X3122Y2846D02*
X3171Y2846D01*
X3183Y2846D02*
X3232Y2846D01*
X2822Y2845D02*
X2869Y2845D01*
X2885Y2845D02*
X2932Y2845D01*
X3122Y2845D02*
X3169Y2845D01*
X3185Y2845D02*
X3232Y2845D01*
X2821Y2844D02*
X2868Y2844D01*
X2886Y2844D02*
X2933Y2844D01*
X3121Y2844D02*
X3168Y2844D01*
X3186Y2844D02*
X3232Y2844D01*
X2821Y2843D02*
X2868Y2843D01*
X2886Y2843D02*
X2933Y2843D01*
X3121Y2843D02*
X3168Y2843D01*
X3186Y2843D02*
X3233Y2843D01*
X2821Y2842D02*
X2867Y2842D01*
X2887Y2842D02*
X2933Y2842D01*
X3121Y2842D02*
X3167Y2842D01*
X3187Y2842D02*
X3233Y2842D01*
X2821Y2841D02*
X2866Y2841D01*
X2888Y2841D02*
X2933Y2841D01*
X3121Y2841D02*
X3166Y2841D01*
X3188Y2841D02*
X3233Y2841D01*
X2821Y2840D02*
X2866Y2840D01*
X2888Y2840D02*
X2933Y2840D01*
X3121Y2840D02*
X3166Y2840D01*
X3188Y2840D02*
X3233Y2840D01*
X2821Y2839D02*
X2866Y2839D01*
X2888Y2839D02*
X2933Y2839D01*
X3121Y2839D02*
X3166Y2839D01*
X3188Y2839D02*
X3233Y2839D01*
X2821Y2838D02*
X2866Y2838D01*
X2888Y2838D02*
X2933Y2838D01*
X3121Y2838D02*
X3166Y2838D01*
X3188Y2838D02*
X3233Y2838D01*
X2821Y2837D02*
X2866Y2837D01*
X2888Y2837D02*
X2933Y2837D01*
X3121Y2837D02*
X3166Y2837D01*
X3188Y2837D02*
X3233Y2837D01*
X2821Y2836D02*
X2866Y2836D01*
X2888Y2836D02*
X2933Y2836D01*
X3121Y2836D02*
X3166Y2836D01*
X3188Y2836D02*
X3233Y2836D01*
X2821Y2835D02*
X2866Y2835D01*
X2888Y2835D02*
X2933Y2835D01*
X3121Y2835D02*
X3166Y2835D01*
X3188Y2835D02*
X3233Y2835D01*
X2821Y2834D02*
X2866Y2834D01*
X2888Y2834D02*
X2933Y2834D01*
X3121Y2834D02*
X3166Y2834D01*
X3188Y2834D02*
X3233Y2834D01*
X2821Y2833D02*
X2866Y2833D01*
X2888Y2833D02*
X2933Y2833D01*
X3121Y2833D02*
X3166Y2833D01*
X3188Y2833D02*
X3233Y2833D01*
X2821Y2832D02*
X2866Y2832D01*
X2888Y2832D02*
X2933Y2832D01*
X3121Y2832D02*
X3166Y2832D01*
X3188Y2832D02*
X3233Y2832D01*
X2821Y2831D02*
X2867Y2831D01*
X2887Y2831D02*
X2933Y2831D01*
X3121Y2831D02*
X3167Y2831D01*
X3187Y2831D02*
X3233Y2831D01*
X2821Y2830D02*
X2868Y2830D01*
X2886Y2830D02*
X2933Y2830D01*
X3121Y2830D02*
X3168Y2830D01*
X3186Y2830D02*
X3233Y2830D01*
X2822Y2829D02*
X2869Y2829D01*
X2885Y2829D02*
X2932Y2829D01*
X3122Y2829D02*
X3169Y2829D01*
X3185Y2829D02*
X3232Y2829D01*
X2822Y2828D02*
X2870Y2828D01*
X2884Y2828D02*
X2932Y2828D01*
X3122Y2828D02*
X3170Y2828D01*
X3184Y2828D02*
X3232Y2828D01*
X2822Y2827D02*
X2871Y2827D01*
X2883Y2827D02*
X2932Y2827D01*
X3122Y2827D02*
X3171Y2827D01*
X3183Y2827D02*
X3232Y2827D01*
X2823Y2826D02*
X2874Y2826D01*
X2880Y2826D02*
X2931Y2826D01*
X3122Y2826D02*
X3174Y2826D01*
X3180Y2826D02*
X3231Y2826D01*
X2823Y2825D02*
X2931Y2825D01*
X3123Y2825D02*
X3231Y2825D01*
X2823Y2824D02*
X2931Y2824D01*
X3123Y2824D02*
X3231Y2824D01*
X2824Y2823D02*
X2930Y2823D01*
X3124Y2823D02*
X3230Y2823D01*
X2824Y2822D02*
X2930Y2822D01*
X3124Y2822D02*
X3230Y2822D01*
X2825Y2821D02*
X2929Y2821D01*
X3125Y2821D02*
X3229Y2821D01*
X2825Y2820D02*
X2929Y2820D01*
X3125Y2820D02*
X3229Y2820D01*
X2826Y2819D02*
X2928Y2819D01*
X3126Y2819D02*
X3228Y2819D01*
X2827Y2818D02*
X2927Y2818D01*
X3127Y2818D02*
X3227Y2818D01*
X2828Y2817D02*
X2926Y2817D01*
X3128Y2817D02*
X3226Y2817D01*
X2828Y2816D02*
X2926Y2816D01*
X3128Y2816D02*
X3226Y2816D01*
X2829Y2815D02*
X2925Y2815D01*
X3129Y2815D02*
X3225Y2815D01*
X2830Y2814D02*
X2924Y2814D01*
X3130Y2814D02*
X3224Y2814D01*
X2831Y2813D02*
X2923Y2813D01*
X3131Y2813D02*
X3222Y2813D01*
X2833Y2812D02*
X2921Y2812D01*
X3133Y2812D02*
X3221Y2812D01*
X2834Y2811D02*
X2920Y2811D01*
X3134Y2811D02*
X3220Y2811D01*
X2836Y2810D02*
X2918Y2810D01*
X3136Y2810D02*
X3218Y2810D01*
X2838Y2809D02*
X2916Y2809D01*
X3138Y2809D02*
X3216Y2809D01*
X2840Y2808D02*
X2914Y2808D01*
X3140Y2808D02*
X3214Y2808D01*
X2843Y2807D02*
X2911Y2807D01*
X3143Y2807D02*
X3211Y2807D01*
X2847Y2806D02*
X2907Y2806D01*
X3147Y2806D02*
X3207Y2806D01*
X2846Y2767D02*
X2908Y2767D01*
X3146Y2767D02*
X3208Y2767D01*
X2842Y2766D02*
X2912Y2766D01*
X3142Y2766D02*
X3212Y2766D01*
X2839Y2765D02*
X2915Y2765D01*
X3139Y2765D02*
X3215Y2765D01*
X2837Y2764D02*
X2917Y2764D01*
X3137Y2764D02*
X3217Y2764D01*
X2835Y2763D02*
X2919Y2763D01*
X3135Y2763D02*
X3219Y2763D01*
X2834Y2762D02*
X2920Y2762D01*
X3134Y2762D02*
X3220Y2762D01*
X2832Y2761D02*
X2922Y2761D01*
X3132Y2761D02*
X3222Y2761D01*
X2831Y2760D02*
X2923Y2760D01*
X3131Y2760D02*
X3223Y2760D01*
X2830Y2759D02*
X2924Y2759D01*
X3130Y2759D02*
X3224Y2759D01*
X2829Y2758D02*
X2925Y2758D01*
X3129Y2758D02*
X3225Y2758D01*
X2828Y2757D02*
X2926Y2757D01*
X3128Y2757D02*
X3226Y2757D01*
X2827Y2756D02*
X2927Y2756D01*
X3127Y2756D02*
X3227Y2756D01*
X2827Y2755D02*
X2927Y2755D01*
X3127Y2755D02*
X3227Y2755D01*
X2826Y2754D02*
X2928Y2754D01*
X3126Y2754D02*
X3228Y2754D01*
X2825Y2753D02*
X2929Y2753D01*
X3125Y2753D02*
X3229Y2753D01*
X2825Y2752D02*
X2929Y2752D01*
X3125Y2752D02*
X3229Y2752D01*
X2824Y2751D02*
X2930Y2751D01*
X3124Y2751D02*
X3230Y2751D01*
X2824Y2750D02*
X2930Y2750D01*
X3124Y2750D02*
X3230Y2750D01*
X2823Y2749D02*
X2931Y2749D01*
X3123Y2749D02*
X3231Y2749D01*
X2823Y2748D02*
X2931Y2748D01*
X3123Y2748D02*
X3231Y2748D01*
X2822Y2747D02*
X2873Y2747D01*
X2881Y2747D02*
X2932Y2747D01*
X3122Y2747D02*
X3173Y2747D01*
X3181Y2747D02*
X3232Y2747D01*
X2822Y2746D02*
X2871Y2746D01*
X2883Y2746D02*
X2932Y2746D01*
X3122Y2746D02*
X3171Y2746D01*
X3183Y2746D02*
X3232Y2746D01*
X2822Y2745D02*
X2869Y2745D01*
X2885Y2745D02*
X2932Y2745D01*
X3122Y2745D02*
X3169Y2745D01*
X3185Y2745D02*
X3232Y2745D01*
X2821Y2744D02*
X2868Y2744D01*
X2886Y2744D02*
X2933Y2744D01*
X3121Y2744D02*
X3168Y2744D01*
X3186Y2744D02*
X3232Y2744D01*
X2821Y2743D02*
X2868Y2743D01*
X2886Y2743D02*
X2933Y2743D01*
X3121Y2743D02*
X3167Y2743D01*
X3186Y2743D02*
X3233Y2743D01*
X2821Y2742D02*
X2867Y2742D01*
X2887Y2742D02*
X2933Y2742D01*
X3121Y2742D02*
X3167Y2742D01*
X3187Y2742D02*
X3233Y2742D01*
X2821Y2741D02*
X2866Y2741D01*
X2888Y2741D02*
X2933Y2741D01*
X3121Y2741D02*
X3166Y2741D01*
X3188Y2741D02*
X3233Y2741D01*
X2821Y2740D02*
X2866Y2740D01*
X2888Y2740D02*
X2933Y2740D01*
X3121Y2740D02*
X3166Y2740D01*
X3188Y2740D02*
X3233Y2740D01*
X2821Y2739D02*
X2866Y2739D01*
X2888Y2739D02*
X2933Y2739D01*
X3121Y2739D02*
X3166Y2739D01*
X3188Y2739D02*
X3233Y2739D01*
X2821Y2738D02*
X2866Y2738D01*
X2888Y2738D02*
X2933Y2738D01*
X3121Y2738D02*
X3166Y2738D01*
X3188Y2738D02*
X3233Y2738D01*
X2821Y2737D02*
X2866Y2737D01*
X2888Y2737D02*
X2933Y2737D01*
X3121Y2737D02*
X3166Y2737D01*
X3188Y2737D02*
X3233Y2737D01*
X2821Y2736D02*
X2866Y2736D01*
X2888Y2736D02*
X2933Y2736D01*
X3121Y2736D02*
X3166Y2736D01*
X3188Y2736D02*
X3233Y2736D01*
X2821Y2735D02*
X2866Y2735D01*
X2888Y2735D02*
X2933Y2735D01*
X3121Y2735D02*
X3166Y2735D01*
X3188Y2735D02*
X3233Y2735D01*
X2821Y2734D02*
X2866Y2734D01*
X2888Y2734D02*
X2933Y2734D01*
X3121Y2734D02*
X3166Y2734D01*
X3188Y2734D02*
X3233Y2734D01*
X2821Y2733D02*
X2866Y2733D01*
X2888Y2733D02*
X2933Y2733D01*
X3121Y2733D02*
X3166Y2733D01*
X3188Y2733D02*
X3233Y2733D01*
X2821Y2732D02*
X2866Y2732D01*
X2888Y2732D02*
X2933Y2732D01*
X3121Y2732D02*
X3166Y2732D01*
X3188Y2732D02*
X3233Y2732D01*
X2821Y2731D02*
X2867Y2731D01*
X2887Y2731D02*
X2933Y2731D01*
X3121Y2731D02*
X3167Y2731D01*
X3187Y2731D02*
X3233Y2731D01*
X2821Y2730D02*
X2868Y2730D01*
X2886Y2730D02*
X2933Y2730D01*
X3121Y2730D02*
X3168Y2730D01*
X3186Y2730D02*
X3233Y2730D01*
X2822Y2729D02*
X2869Y2729D01*
X2885Y2729D02*
X2932Y2729D01*
X3122Y2729D02*
X3169Y2729D01*
X3185Y2729D02*
X3232Y2729D01*
X2822Y2728D02*
X2870Y2728D01*
X2884Y2728D02*
X2932Y2728D01*
X3122Y2728D02*
X3170Y2728D01*
X3184Y2728D02*
X3232Y2728D01*
X2822Y2727D02*
X2871Y2727D01*
X2883Y2727D02*
X2932Y2727D01*
X3122Y2727D02*
X3171Y2727D01*
X3183Y2727D02*
X3232Y2727D01*
X2823Y2726D02*
X2874Y2726D01*
X2880Y2726D02*
X2931Y2726D01*
X3122Y2726D02*
X3174Y2726D01*
X3180Y2726D02*
X3231Y2726D01*
X2823Y2725D02*
X2931Y2725D01*
X3123Y2725D02*
X3231Y2725D01*
X2823Y2724D02*
X2931Y2724D01*
X3123Y2724D02*
X3231Y2724D01*
X2824Y2723D02*
X2930Y2723D01*
X3124Y2723D02*
X3230Y2723D01*
X2824Y2722D02*
X2930Y2722D01*
X3124Y2722D02*
X3230Y2722D01*
X2825Y2721D02*
X2929Y2721D01*
X3125Y2721D02*
X3229Y2721D01*
X2825Y2720D02*
X2929Y2720D01*
X3125Y2720D02*
X3229Y2720D01*
X2826Y2719D02*
X2928Y2719D01*
X3126Y2719D02*
X3228Y2719D01*
X2827Y2718D02*
X2927Y2718D01*
X3127Y2718D02*
X3227Y2718D01*
X2828Y2717D02*
X2926Y2717D01*
X3128Y2717D02*
X3226Y2717D01*
X2828Y2716D02*
X2926Y2716D01*
X3128Y2716D02*
X3226Y2716D01*
X2829Y2715D02*
X2925Y2715D01*
X3129Y2715D02*
X3225Y2715D01*
X2830Y2714D02*
X2924Y2714D01*
X3130Y2714D02*
X3224Y2714D01*
X2832Y2713D02*
X2923Y2713D01*
X3131Y2713D02*
X3222Y2713D01*
X2833Y2712D02*
X2921Y2712D01*
X3133Y2712D02*
X3221Y2712D01*
X2834Y2711D02*
X2920Y2711D01*
X3134Y2711D02*
X3220Y2711D01*
X2836Y2710D02*
X2918Y2710D01*
X3136Y2710D02*
X3218Y2710D01*
X2838Y2709D02*
X2916Y2709D01*
X3138Y2709D02*
X3216Y2709D01*
X2840Y2708D02*
X2914Y2708D01*
X3140Y2708D02*
X3214Y2708D01*
X2843Y2707D02*
X2911Y2707D01*
X3143Y2707D02*
X3211Y2707D01*
X2847Y2706D02*
X2907Y2706D01*
X3147Y2706D02*
X3207Y2706D01*
X2845Y2667D02*
X2909Y2667D01*
X3145Y2667D02*
X3209Y2667D01*
X2842Y2666D02*
X2912Y2666D01*
X3142Y2666D02*
X3212Y2666D01*
X2839Y2665D02*
X2915Y2665D01*
X3139Y2665D02*
X3215Y2665D01*
X2837Y2664D02*
X2917Y2664D01*
X3137Y2664D02*
X3217Y2664D01*
X2835Y2663D02*
X2919Y2663D01*
X3135Y2663D02*
X3219Y2663D01*
X2834Y2662D02*
X2920Y2662D01*
X3134Y2662D02*
X3220Y2662D01*
X2832Y2661D02*
X2922Y2661D01*
X3132Y2661D02*
X3222Y2661D01*
X2831Y2660D02*
X2923Y2660D01*
X3131Y2660D02*
X3223Y2660D01*
X2830Y2659D02*
X2924Y2659D01*
X3130Y2659D02*
X3224Y2659D01*
X2829Y2658D02*
X2925Y2658D01*
X3129Y2658D02*
X3225Y2658D01*
X2828Y2657D02*
X2926Y2657D01*
X3128Y2657D02*
X3226Y2657D01*
X2827Y2656D02*
X2927Y2656D01*
X3127Y2656D02*
X3227Y2656D01*
X2827Y2655D02*
X2927Y2655D01*
X3127Y2655D02*
X3227Y2655D01*
X2826Y2654D02*
X2928Y2654D01*
X3126Y2654D02*
X3228Y2654D01*
X2825Y2653D02*
X2929Y2653D01*
X3125Y2653D02*
X3229Y2653D01*
X2825Y2652D02*
X2929Y2652D01*
X3125Y2652D02*
X3229Y2652D01*
X2824Y2651D02*
X2930Y2651D01*
X3124Y2651D02*
X3230Y2651D01*
X2824Y2650D02*
X2930Y2650D01*
X3124Y2650D02*
X3230Y2650D01*
X2823Y2649D02*
X2931Y2649D01*
X3123Y2649D02*
X3231Y2649D01*
X2823Y2648D02*
X2931Y2648D01*
X3123Y2648D02*
X3231Y2648D01*
X2822Y2647D02*
X2873Y2647D01*
X2881Y2647D02*
X2932Y2647D01*
X3122Y2647D02*
X3173Y2647D01*
X3181Y2647D02*
X3232Y2647D01*
X2822Y2646D02*
X2871Y2646D01*
X2883Y2646D02*
X2932Y2646D01*
X3122Y2646D02*
X3171Y2646D01*
X3183Y2646D02*
X3232Y2646D01*
X2822Y2645D02*
X2869Y2645D01*
X2885Y2645D02*
X2932Y2645D01*
X3122Y2645D02*
X3169Y2645D01*
X3185Y2645D02*
X3232Y2645D01*
X2821Y2644D02*
X2868Y2644D01*
X2886Y2644D02*
X2933Y2644D01*
X3121Y2644D02*
X3168Y2644D01*
X3186Y2644D02*
X3232Y2644D01*
X2821Y2643D02*
X2868Y2643D01*
X2886Y2643D02*
X2933Y2643D01*
X3121Y2643D02*
X3167Y2643D01*
X3186Y2643D02*
X3233Y2643D01*
X2821Y2642D02*
X2867Y2642D01*
X2887Y2642D02*
X2933Y2642D01*
X3121Y2642D02*
X3167Y2642D01*
X3187Y2642D02*
X3233Y2642D01*
X2821Y2641D02*
X2866Y2641D01*
X2888Y2641D02*
X2933Y2641D01*
X3121Y2641D02*
X3166Y2641D01*
X3188Y2641D02*
X3233Y2641D01*
X2821Y2640D02*
X2866Y2640D01*
X2888Y2640D02*
X2933Y2640D01*
X3121Y2640D02*
X3166Y2640D01*
X3188Y2640D02*
X3233Y2640D01*
X2821Y2639D02*
X2866Y2639D01*
X2888Y2639D02*
X2933Y2639D01*
X3121Y2639D02*
X3166Y2639D01*
X3188Y2639D02*
X3233Y2639D01*
X2821Y2638D02*
X2866Y2638D01*
X2888Y2638D02*
X2933Y2638D01*
X3121Y2638D02*
X3166Y2638D01*
X3188Y2638D02*
X3233Y2638D01*
X2821Y2637D02*
X2866Y2637D01*
X2888Y2637D02*
X2933Y2637D01*
X3121Y2637D02*
X3166Y2637D01*
X3188Y2637D02*
X3233Y2637D01*
X2821Y2636D02*
X2866Y2636D01*
X2888Y2636D02*
X2933Y2636D01*
X3121Y2636D02*
X3166Y2636D01*
X3188Y2636D02*
X3233Y2636D01*
X2821Y2635D02*
X2866Y2635D01*
X2888Y2635D02*
X2933Y2635D01*
X3121Y2635D02*
X3166Y2635D01*
X3188Y2635D02*
X3233Y2635D01*
X2821Y2634D02*
X2866Y2634D01*
X2888Y2634D02*
X2933Y2634D01*
X3121Y2634D02*
X3166Y2634D01*
X3188Y2634D02*
X3233Y2634D01*
X2821Y2633D02*
X2866Y2633D01*
X2888Y2633D02*
X2933Y2633D01*
X3121Y2633D02*
X3166Y2633D01*
X3188Y2633D02*
X3233Y2633D01*
X2821Y2632D02*
X2866Y2632D01*
X2888Y2632D02*
X2933Y2632D01*
X3121Y2632D02*
X3166Y2632D01*
X3188Y2632D02*
X3233Y2632D01*
X2821Y2631D02*
X2867Y2631D01*
X2887Y2631D02*
X2933Y2631D01*
X3121Y2631D02*
X3167Y2631D01*
X3187Y2631D02*
X3233Y2631D01*
X2821Y2630D02*
X2868Y2630D01*
X2886Y2630D02*
X2933Y2630D01*
X3121Y2630D02*
X3168Y2630D01*
X3186Y2630D02*
X3233Y2630D01*
X2822Y2629D02*
X2869Y2629D01*
X2885Y2629D02*
X2932Y2629D01*
X3122Y2629D02*
X3169Y2629D01*
X3185Y2629D02*
X3232Y2629D01*
X2822Y2628D02*
X2870Y2628D01*
X2884Y2628D02*
X2932Y2628D01*
X3122Y2628D02*
X3170Y2628D01*
X3184Y2628D02*
X3232Y2628D01*
X2822Y2627D02*
X2871Y2627D01*
X2883Y2627D02*
X2932Y2627D01*
X3122Y2627D02*
X3171Y2627D01*
X3183Y2627D02*
X3232Y2627D01*
X2823Y2626D02*
X2874Y2626D01*
X2880Y2626D02*
X2931Y2626D01*
X3122Y2626D02*
X3174Y2626D01*
X3180Y2626D02*
X3231Y2626D01*
X2823Y2625D02*
X2931Y2625D01*
X3123Y2625D02*
X3231Y2625D01*
X2823Y2624D02*
X2931Y2624D01*
X3123Y2624D02*
X3231Y2624D01*
X2824Y2623D02*
X2930Y2623D01*
X3124Y2623D02*
X3230Y2623D01*
X2824Y2622D02*
X2930Y2622D01*
X3124Y2622D02*
X3230Y2622D01*
X2825Y2621D02*
X2929Y2621D01*
X3125Y2621D02*
X3229Y2621D01*
X2825Y2620D02*
X2929Y2620D01*
X3125Y2620D02*
X3229Y2620D01*
X2826Y2619D02*
X2928Y2619D01*
X3126Y2619D02*
X3228Y2619D01*
X2827Y2618D02*
X2927Y2618D01*
X3127Y2618D02*
X3227Y2618D01*
X2828Y2617D02*
X2926Y2617D01*
X3128Y2617D02*
X3226Y2617D01*
X2828Y2616D02*
X2926Y2616D01*
X3128Y2616D02*
X3226Y2616D01*
X2829Y2615D02*
X2925Y2615D01*
X3129Y2615D02*
X3225Y2615D01*
X2830Y2614D02*
X2924Y2614D01*
X3130Y2614D02*
X3224Y2614D01*
X2832Y2613D02*
X2922Y2613D01*
X3131Y2613D02*
X3222Y2613D01*
X2833Y2612D02*
X2921Y2612D01*
X3133Y2612D02*
X3221Y2612D01*
X2834Y2611D02*
X2920Y2611D01*
X3134Y2611D02*
X3220Y2611D01*
X2836Y2610D02*
X2918Y2610D01*
X3136Y2610D02*
X3218Y2610D01*
X2838Y2609D02*
X2916Y2609D01*
X3138Y2609D02*
X3216Y2609D01*
X2840Y2608D02*
X2914Y2608D01*
X3140Y2608D02*
X3214Y2608D01*
X2843Y2607D02*
X2911Y2607D01*
X3143Y2607D02*
X3211Y2607D01*
X2847Y2606D02*
X2907Y2606D01*
X3147Y2606D02*
X3207Y2606D01*
X2845Y2567D02*
X2909Y2567D01*
X3145Y2567D02*
X3209Y2567D01*
X2842Y2566D02*
X2912Y2566D01*
X3142Y2566D02*
X3212Y2566D01*
X2839Y2565D02*
X2915Y2565D01*
X3139Y2565D02*
X3215Y2565D01*
X2837Y2564D02*
X2917Y2564D01*
X3137Y2564D02*
X3217Y2564D01*
X2835Y2563D02*
X2919Y2563D01*
X3135Y2563D02*
X3219Y2563D01*
X2834Y2562D02*
X2920Y2562D01*
X3134Y2562D02*
X3220Y2562D01*
X2832Y2561D02*
X2922Y2561D01*
X3132Y2561D02*
X3222Y2561D01*
X2831Y2560D02*
X2923Y2560D01*
X3131Y2560D02*
X3223Y2560D01*
X2830Y2559D02*
X2924Y2559D01*
X3130Y2559D02*
X3224Y2559D01*
X2829Y2558D02*
X2925Y2558D01*
X3129Y2558D02*
X3225Y2558D01*
X2828Y2557D02*
X2926Y2557D01*
X3128Y2557D02*
X3226Y2557D01*
X2827Y2556D02*
X2927Y2556D01*
X3127Y2556D02*
X3227Y2556D01*
X2827Y2555D02*
X2927Y2555D01*
X3127Y2555D02*
X3227Y2555D01*
X2826Y2554D02*
X2928Y2554D01*
X3126Y2554D02*
X3228Y2554D01*
X2825Y2553D02*
X2929Y2553D01*
X3125Y2553D02*
X3229Y2553D01*
X2825Y2552D02*
X2929Y2552D01*
X3125Y2552D02*
X3229Y2552D01*
X2824Y2551D02*
X2930Y2551D01*
X3124Y2551D02*
X3230Y2551D01*
X2824Y2550D02*
X2930Y2550D01*
X3124Y2550D02*
X3230Y2550D01*
X2823Y2549D02*
X2931Y2549D01*
X3123Y2549D02*
X3231Y2549D01*
X2823Y2548D02*
X2931Y2548D01*
X3123Y2548D02*
X3231Y2548D01*
X2822Y2547D02*
X2873Y2547D01*
X2881Y2547D02*
X2932Y2547D01*
X3122Y2547D02*
X3173Y2547D01*
X3181Y2547D02*
X3232Y2547D01*
X2822Y2546D02*
X2871Y2546D01*
X2883Y2546D02*
X2932Y2546D01*
X3122Y2546D02*
X3171Y2546D01*
X3183Y2546D02*
X3232Y2546D01*
X2822Y2545D02*
X2869Y2545D01*
X2885Y2545D02*
X2932Y2545D01*
X3122Y2545D02*
X3169Y2545D01*
X3185Y2545D02*
X3232Y2545D01*
X2821Y2544D02*
X2868Y2544D01*
X2886Y2544D02*
X2933Y2544D01*
X3121Y2544D02*
X3168Y2544D01*
X3186Y2544D02*
X3232Y2544D01*
X2821Y2543D02*
X2868Y2543D01*
X2887Y2543D02*
X2933Y2543D01*
X3121Y2543D02*
X3167Y2543D01*
X3186Y2543D02*
X3233Y2543D01*
X2821Y2542D02*
X2867Y2542D01*
X2887Y2542D02*
X2933Y2542D01*
X3121Y2542D02*
X3167Y2542D01*
X3187Y2542D02*
X3233Y2542D01*
X2821Y2541D02*
X2866Y2541D01*
X2888Y2541D02*
X2933Y2541D01*
X3121Y2541D02*
X3166Y2541D01*
X3188Y2541D02*
X3233Y2541D01*
X2821Y2540D02*
X2866Y2540D01*
X2888Y2540D02*
X2933Y2540D01*
X3121Y2540D02*
X3166Y2540D01*
X3188Y2540D02*
X3233Y2540D01*
X2821Y2539D02*
X2866Y2539D01*
X2888Y2539D02*
X2933Y2539D01*
X3121Y2539D02*
X3166Y2539D01*
X3188Y2539D02*
X3233Y2539D01*
X2821Y2538D02*
X2866Y2538D01*
X2888Y2538D02*
X2933Y2538D01*
X3121Y2538D02*
X3166Y2538D01*
X3188Y2538D02*
X3233Y2538D01*
X2821Y2537D02*
X2866Y2537D01*
X2888Y2537D02*
X2933Y2537D01*
X3121Y2537D02*
X3166Y2537D01*
X3188Y2537D02*
X3233Y2537D01*
X2821Y2536D02*
X2866Y2536D01*
X2888Y2536D02*
X2933Y2536D01*
X3121Y2536D02*
X3166Y2536D01*
X3188Y2536D02*
X3233Y2536D01*
X2821Y2535D02*
X2866Y2535D01*
X2888Y2535D02*
X2933Y2535D01*
X3121Y2535D02*
X3166Y2535D01*
X3188Y2535D02*
X3233Y2535D01*
X2821Y2534D02*
X2866Y2534D01*
X2888Y2534D02*
X2933Y2534D01*
X3121Y2534D02*
X3166Y2534D01*
X3188Y2534D02*
X3233Y2534D01*
X2821Y2533D02*
X2866Y2533D01*
X2888Y2533D02*
X2933Y2533D01*
X3121Y2533D02*
X3166Y2533D01*
X3188Y2533D02*
X3233Y2533D01*
X2821Y2532D02*
X2866Y2532D01*
X2888Y2532D02*
X2933Y2532D01*
X3121Y2532D02*
X3166Y2532D01*
X3187Y2532D02*
X3233Y2532D01*
X2821Y2531D02*
X2867Y2531D01*
X2887Y2531D02*
X2933Y2531D01*
X3121Y2531D02*
X3167Y2531D01*
X3187Y2531D02*
X3233Y2531D01*
X2821Y2530D02*
X2868Y2530D01*
X2886Y2530D02*
X2933Y2530D01*
X3121Y2530D02*
X3168Y2530D01*
X3186Y2530D02*
X3233Y2530D01*
X2822Y2529D02*
X2869Y2529D01*
X2885Y2529D02*
X2932Y2529D01*
X3122Y2529D02*
X3169Y2529D01*
X3185Y2529D02*
X3232Y2529D01*
X2822Y2528D02*
X2870Y2528D01*
X2884Y2528D02*
X2932Y2528D01*
X3122Y2528D02*
X3170Y2528D01*
X3184Y2528D02*
X3232Y2528D01*
X2822Y2527D02*
X2871Y2527D01*
X2883Y2527D02*
X2932Y2527D01*
X3122Y2527D02*
X3171Y2527D01*
X3183Y2527D02*
X3232Y2527D01*
X2823Y2526D02*
X2874Y2526D01*
X2880Y2526D02*
X2931Y2526D01*
X3122Y2526D02*
X3174Y2526D01*
X3180Y2526D02*
X3231Y2526D01*
X2823Y2525D02*
X2931Y2525D01*
X3123Y2525D02*
X3231Y2525D01*
X2823Y2524D02*
X2931Y2524D01*
X3123Y2524D02*
X3231Y2524D01*
X2824Y2523D02*
X2930Y2523D01*
X3124Y2523D02*
X3230Y2523D01*
X2824Y2522D02*
X2930Y2522D01*
X3124Y2522D02*
X3230Y2522D01*
X2825Y2521D02*
X2929Y2521D01*
X3125Y2521D02*
X3229Y2521D01*
X2825Y2520D02*
X2929Y2520D01*
X3125Y2520D02*
X3229Y2520D01*
X2826Y2519D02*
X2928Y2519D01*
X3126Y2519D02*
X3228Y2519D01*
X2827Y2518D02*
X2927Y2518D01*
X3127Y2518D02*
X3227Y2518D01*
X2828Y2517D02*
X2926Y2517D01*
X3128Y2517D02*
X3226Y2517D01*
X2828Y2516D02*
X2926Y2516D01*
X3128Y2516D02*
X3226Y2516D01*
X2829Y2515D02*
X2925Y2515D01*
X3129Y2515D02*
X3225Y2515D01*
X2830Y2514D02*
X2924Y2514D01*
X3130Y2514D02*
X3224Y2514D01*
X2832Y2513D02*
X2922Y2513D01*
X3131Y2513D02*
X3222Y2513D01*
X2833Y2512D02*
X2921Y2512D01*
X3133Y2512D02*
X3221Y2512D01*
X2834Y2511D02*
X2920Y2511D01*
X3134Y2511D02*
X3220Y2511D01*
X2836Y2510D02*
X2918Y2510D01*
X3136Y2510D02*
X3218Y2510D01*
X2838Y2509D02*
X2916Y2509D01*
X3138Y2509D02*
X3216Y2509D01*
X2840Y2508D02*
X2914Y2508D01*
X3140Y2508D02*
X3214Y2508D01*
X2843Y2507D02*
X2911Y2507D01*
X3143Y2507D02*
X3211Y2507D01*
X2847Y2506D02*
X2907Y2506D01*
X3147Y2506D02*
X3207Y2506D01*
D02*
G04 End of Mask0*
M02*